<?xml version="1.0" encoding="UTF-8" standalone="no"?><!DOCTYPE svg PUBLIC "-//W3C//DTD SVG 1.1//EN" "http://www.w3.org/Graphics/SVG/1.1/DTD/svg11.dtd"><svg width="100%" height="100%" viewBox="0 0 4267 4267" version="1.1" xmlns="http://www.w3.org/2000/svg" xmlns:xlink="http://www.w3.org/1999/xlink" xml:space="preserve" xmlns:serif="http://www.serif.com/" style="fill-rule:evenodd;clip-rule:evenodd;stroke-linecap:round;stroke-linejoin:round;stroke-miterlimit:1.5;"><g><rect x="2286.96" y="1087.74" width="1186.18" height="2275.74" style="fill:#d3d3d3;"/><rect x="3473.14" y="1087.74" width="662.694" height="2412.22" style="fill:#bfbfbf;"/><path d="M3804.49,329.955l331.347,757.782l-662.695,-0l331.348,-757.782Z" style="fill:#b1b1b1;"/><path d="M3804.49,175.563c0,-57.778 -40.865,-104.616 -91.271,-104.616l-1008.12,-0c-50.408,-0 -91.272,46.838 -91.272,104.616l0,154.392l1190.66,0l0,-154.392Z" style="fill:#d3d3d3;"/><path d="M2286.96,1087.74l331.347,-757.782l1186.18,0l-331.348,757.782l-1186.18,-0Z" style="fill:#bfbfbf;"/><path d="M2378.23,3499.97c-24.207,-0 -47.424,-11.023 -64.54,-30.642c-17.117,-19.62 -26.732,-46.229 -26.732,-73.977l-0,-1851.21l149.503,-0c0,-0 -0.352,274.681 -0.583,454.188c-0.052,40.246 13.86,78.864 38.67,107.343c24.81,28.479 58.481,44.483 93.594,44.483l0.006,-0c35.029,-0 68.623,-15.951 93.392,-44.341c24.769,-28.39 38.685,-66.896 38.685,-107.047l-0,-454.626l124.166,-0l-0,178.268c-0,83.728 59.217,151.603 132.265,151.603l0.01,0c73.048,0 132.265,-67.875 132.265,-151.603l-0,-178.268l382.152,-0l0,1955.84l-1092.85,-0l-0,-0.015Z" style="fill:#59a6d6;"/><rect x="3473.14" y="1544.13" width="660.899" height="1955.83" style="fill:#3e82ad;"/><path d="M3971.28,1727.39c-0,-18.498 -6.411,-36.238 -17.823,-49.317c-11.411,-13.08 -26.887,-20.428 -43.026,-20.428l-197.294,0c-16.138,0 -31.615,7.348 -43.026,20.428c-11.411,13.079 -17.822,30.819 -17.822,49.317l-0,1520.33c-0,18.498 6.411,36.237 17.822,49.317c11.411,13.08 26.888,20.428 43.026,20.428l197.294,-0c16.139,-0 31.615,-7.348 43.026,-20.428c11.412,-13.08 17.823,-30.819 17.823,-49.317l-0,-1520.33Z" style="fill:#d3d3d3;"/><path d="M3244.52,3008.92c0,-27.746 -9.616,-54.356 -26.733,-73.975c-17.117,-19.619 -40.332,-30.642 -64.538,-30.642l-546.388,0c-24.207,0 -47.422,11.023 -64.538,30.642c-17.117,19.619 -26.734,46.229 -26.734,73.975l0,150.159c0,27.746 9.617,54.355 26.734,73.976c17.116,19.62 40.331,30.64 64.538,30.64l546.388,0c24.206,0 47.421,-11.02 64.538,-30.64c17.117,-19.621 26.733,-46.23 26.733,-73.976l0,-150.159Z" style="fill:#808080;"/><rect x="2617.47" y="2487.56" width="525.151" height="416.74" style="fill:#d3d3d3;"/><path d="M3286.11,2568.29c-0,-21.409 -7.419,-41.94 -20.626,-57.079c-13.207,-15.138 -31.121,-23.643 -49.799,-23.643l-73.064,-0l-0,161.452l73.064,0c18.678,0 36.592,-8.505 49.799,-23.643c13.207,-15.138 20.626,-35.67 20.626,-57.079l-0,-0.008Z" style="fill:#bfbfbf;"/><ellipse cx="2748.47" cy="3083.99" rx="59.252" ry="67.76"/><ellipse cx="3011.63" cy="3083.99" rx="59.252" ry="67.76"/><path d="M2617.47,2487.56l-73.064,0c-18.678,0 -36.592,8.505 -49.798,23.644c-13.207,15.138 -20.627,35.67 -20.627,57.079l-0,0.008c-0,21.409 7.42,41.94 20.627,57.079c13.206,15.138 31.12,23.643 49.798,23.643l73.064,0l0,-161.453Z" style="fill:#bfbfbf;"/><path d="M2689.22,2395.85c0,-18.497 -6.411,-36.237 -17.822,-49.317c-11.411,-13.079 -26.888,-20.427 -43.026,-20.427l-82.642,-0l-0,161.452l143.49,0l0,-91.708Z" style="fill:#808080;"/><path d="M3214.37,2326.12l-82.642,0c-16.139,0 -31.616,7.349 -43.027,20.428c-11.411,13.08 -17.822,30.819 -17.822,49.317l0,91.708l143.491,-0l0,-161.453Z" style="fill:#808080;"/><path d="M2403.87,3942.27c-219.913,21.194 -656.444,-184.415 -743.909,-374.061c-87.466,-189.646 45.841,-627.059 219.112,-763.816c173.272,-136.755 637.123,-162.821 820.519,-56.712c183.393,106.108 329.131,494.264 279.844,693.362c-49.287,199.098 -355.652,480.031 -575.564,501.225l-0.002,0.002Z" style="fill:#ff1313;"/><path d="M2279.38,2884.59c84.057,10.622 302.134,249.446 302.134,249.446c0,-0 -188.042,-232.69 -172.675,-275.374c15.368,-42.684 264.882,19.272 264.882,19.272c-0,-0 -287.241,-72.118 -293.272,-111.933c-6.03,-39.816 257.089,-126.961 257.089,-126.961c0,0 -174.441,23.66 -261.789,18.735c-96.93,-5.464 -319.791,-51.519 -319.791,-51.519c0,-0 60.283,63.891 48.088,98.256c-24.042,67.746 -192.34,308.222 -192.34,308.222c-0,0 175.941,-211.549 203.519,-201.954c27.577,9.596 -38.052,259.525 -38.052,259.525c0,-0 118.15,-196.337 202.207,-185.715Z" style="fill:#038000;"/><path d="M2210.34,2722.85c0,-32.068 88.186,-95.286 91.186,-134.466c2.999,-39.181 -76.194,-82.113 -73.191,-100.618c3.003,-18.504 66.773,-27.181 91.211,-10.412c24.438,16.77 57.869,69.739 55.417,111.03c-3.003,50.574 -46,170.001 -73.437,192.412c-27.438,22.412 -91.186,-25.877 -91.186,-57.946Z" style="fill:#024100;"/><path d="M97.896,3518.54c22.464,139.887 95.159,242.631 207.288,316.211c129.104,79.617 269.43,106.397 417.377,87.601l-210.55,-1452.56c-38.43,4.485 -219.863,49.725 -325.965,284.406c-101.796,241.305 -129.071,496.477 -88.15,764.339l0,-0.002Z" style="fill:#dedede;stroke:#dedede;stroke-width:1.46px;"/><path d="M1206.87,3357.84c18.179,140.509 -22.35,259.664 -108.972,362.053c-101.185,112.998 -228.131,178.52 -375.326,202.505l-210.55,-1452.56c38.123,-6.611 224.934,-14.749 393.303,180.148c166.121,202.47 264.726,439.395 301.545,707.852l0,-0.002Z" style="fill:#dedede;stroke:#dedede;stroke-width:1.46px;"/><path d="M2017.11,3601.99c-12.999,147.782 -79.854,260.605 -188.991,345.982c-126.02,92.975 -267.226,131.633 -419.434,123.282l111.816,-1532.79c39.509,1.755 227.739,35.166 352.567,272.131c120.905,244.21 166.797,508.578 144.042,791.395l0,-0.003Z" style="fill:#ed976e;stroke:#ed976e;stroke-width:1.51px;"/><path d="M874.803,3518.64c-8.586,148.103 41.187,269.434 136.778,369.746c111.193,110.28 245.294,169.022 397.102,182.848l111.816,-1532.79c-39.345,-3.997 -230.431,1.743 -388.326,218.083c-155.068,224.078 -238.841,478.987 -257.371,762.113l0.001,-0.003Z" style="fill:#ed976e;stroke:#ed976e;stroke-width:1.51px;"/><path d="M1821.87,4019.59c27.282,96.682 1876.08,-161.574 2218.55,-309.905c184.789,-80.034 35.744,-607.947 -163.696,-580.089c-369.759,51.651 -2082.14,793.313 -2054.86,889.994Z" style="fill:#ff6e00;"/><path d="M4018.47,3410.02c17.846,65.672 0.034,159.676 23.275,202.842c20.366,37.826 81.898,51.004 116.17,56.156c30.627,4.605 84.685,-0.12 89.457,-25.244c4.772,-25.123 -53.853,-79.538 -60.822,-125.498c-7.242,-47.756 31.75,-116.793 17.369,-161.045c-14.38,-44.255 -91.256,-66.485 -103.653,-104.478c-12.397,-37.995 43.447,-92.917 29.274,-123.485c-14.174,-30.567 -78.077,-61.026 -114.312,-59.922c-36.234,1.106 -103.487,25.729 -103.098,66.55c0.539,56.779 84.737,194.63 106.34,274.124Z" style="fill:#008402;"/><path d="M3650.61,3413.26c-13.385,-47.857 -39.67,-147.021 -41.631,-146.348c-1.962,0.673 16.472,102.531 29.857,150.386c13.087,46.79 48.49,137.422 50.452,136.748c1.961,-0.673 -25.571,-93.918 -38.678,-140.786Z" style="fill:#b64e00;"/><path d="M3072.19,3757c8.338,29.122 26.893,88.855 24.881,89.35c-2.012,0.496 -28.618,-57.257 -36.956,-86.38c-8.152,-28.472 -15.082,-87.852 -13.068,-88.347c2.011,-0.496 16.977,56.857 25.143,85.377Z" style="fill:#b64e00;"/><path d="M2439.04,3785.42c8.337,29.12 26.894,88.855 24.88,89.35c-2.011,0.494 -28.618,-57.259 -36.954,-86.38c-8.153,-28.474 -15.082,-87.854 -13.07,-88.349c2.013,-0.495 16.979,56.857 25.144,85.379Z" style="fill:#b64e00;"/><path d="M3491.72,3550.35c-16.144,-57.633 -48.123,-176.98 -50.079,-176.284c-1.955,0.695 22.2,122.827 38.345,180.459c15.783,56.348 56.563,166.034 58.518,165.337c1.956,-0.696 -30.973,-113.067 -46.784,-169.512Z" style="fill:#b64e00;"/><path d="M2874.49,3756.55c10.019,35.08 32.047,107.117 30.03,107.598c-2.016,0.481 -32.11,-69.63 -42.128,-104.711c-9.797,-34.299 -20.003,-105.295 -17.987,-105.775c2.017,-0.483 20.273,68.53 30.085,102.888Z" style="fill:#b64e00;"/><path d="M3908,3604.29c-11.017,-39.465 -32.414,-121.313 -34.382,-120.659c-1.967,0.653 11.558,85.117 22.575,124.583c10.772,38.586 41.562,112.868 43.529,112.215c1.969,-0.655 -20.931,-77.486 -31.722,-116.139Z" style="fill:#b64e00;"/><path d="M3375.64,3705.68c-13.384,-47.855 -39.668,-147.021 -41.631,-146.348c-1.962,0.673 16.472,102.531 29.859,150.388c13.085,46.789 48.488,137.42 50.45,136.747c1.963,-0.674 -25.569,-93.918 -38.678,-140.787Z" style="fill:#b64e00;"/><path d="M2706.83,3729.16c8.338,29.121 26.894,88.855 24.881,89.35c-2.012,0.495 -28.619,-57.258 -36.955,-86.38c-8.153,-28.472 -15.082,-87.854 -13.07,-88.348c2.014,-0.496 16.979,56.856 25.144,85.378Z" style="fill:#b64e00;"/><path d="M3178.67,3499.25c-4.984,-18.051 -14.051,-55.658 -15.852,-55.105c-1.802,0.553 0.06,40.373 5.045,58.423c4.874,17.649 23.063,50.435 24.865,49.88c1.8,-0.553 -9.176,-35.521 -14.058,-53.198Z" style="fill:#b64e00;"/><path d="M2620.11,3913.35c3.202,10.957 11.033,33.231 9.213,33.717c-1.821,0.487 -16.933,-19.843 -20.133,-30.8c-3.13,-10.714 -0.893,-34.459 0.926,-34.945c1.821,-0.487 6.859,21.297 9.994,32.028Z" style="fill:#b64e00;"/><path d="M2244.36,3930.04c5.437,18.883 17.886,57.517 16.06,57.985c-1.825,0.468 -21.574,-36.296 -27.013,-55.179c-5.315,-18.462 -7.437,-57.654 -5.613,-58.122c1.827,-0.467 11.24,36.821 16.566,55.316Z" style="fill:#b64e00;"/></g></svg>