<?xml version="1.0" encoding="UTF-8" standalone="no"?>
<!DOCTYPE svg PUBLIC "-//W3C//DTD SVG 1.1//EN" "http://www.w3.org/Graphics/SVG/1.1/DTD/svg11.dtd">
<svg width="100%" height="100%" viewBox="0 0 2048 2048" version="1.1" xmlns="http://www.w3.org/2000/svg" xmlns:xlink="http://www.w3.org/1999/xlink" xml:space="preserve" xmlns:serif="http://www.serif.com/" style="fill-rule:evenodd;clip-rule:evenodd;stroke-linejoin:round;stroke-miterlimit:2;">
    <g id="Drink.svg" transform="matrix(-0.9597,0,0,0.9597,1154.16,961.24)">
        <g transform="matrix(1,0,0,1,-1067,-1067)">
            <path d="M1242.36,185.224C1177.75,198.456 1127.02,248.544 1112.96,312.982C1076.39,480.64 1009.3,788.21 1009.3,788.21L1052.53,797.64C1052.53,797.64 1114.97,511.403 1149.98,350.891C1164.04,286.454 1214.77,236.366 1279.38,223.133C1374.62,203.628 1499.41,178.071 1499.41,178.071L1490.47,134.411C1490.47,134.411 1346.75,163.845 1242.36,185.224Z" style="fill:rgb(255,218,112);"/>
            <path d="M1575.9,652.415L557.43,652.415L580.804,584.197L1552.52,584.197L1575.89,652.415L1575.9,652.415Z" style="fill:rgb(128,128,128);"/>
            <path d="M1534.52,652.415L598.82,652.415L832.745,1998.92L1300.6,1998.92L1534.52,652.415Z" style="fill:rgb(255,57,57);"/>
            <path d="M1372.33,1585.97L760.997,1585.97L670.555,1065.38L1462.77,1065.38L1372.33,1585.97Z" style="fill:rgb(235,235,235);"/>
        </g>
    </g>
    <g id="Fries-2.svg" serif:id="Fries 2.svg" transform="matrix(0.661367,0,0,0.661367,705.679,1454.39)">
        <g transform="matrix(1,0,0,1,-1067,-1067)">
            <g>
                <path d="M706.685,394.737L739.675,1215.31L665.193,1182.83L635.063,433.374L706.685,394.737Z" style="fill:rgb(255,198,27);"/>
                <path d="M706.685,394.737L739.675,1215.31L811.296,1176.67L781.166,427.222L706.685,394.737Z" style="fill:rgb(255,165,27);"/>
            </g>
            <g>
                <path d="M891.706,349.769L806.413,1166.56L737.374,1123.71L815.274,377.711L891.706,349.769Z" style="fill:rgb(255,198,27);"/>
                <path d="M891.706,349.769L806.413,1166.56L882.844,1138.62L960.745,392.621L891.706,349.769Z" style="fill:rgb(255,165,27);"/>
            </g>
            <g>
                <path d="M1141.09,394.737L1133.76,1215.94L1060.97,1179.84L1067.66,429.812L1141.09,394.737Z" style="fill:rgb(255,198,27);"/>
                <path d="M1141.09,394.737L1133.76,1215.94L1207.19,1180.87L1213.89,430.839L1141.09,394.737Z" style="fill:rgb(255,165,27);"/>
            </g>
            <g>
                <path d="M1075.26,523.607L873.455,1319.66L811.292,1267.33L995.606,540.273L1075.26,523.607Z" style="fill:rgb(255,198,27);"/>
                <path d="M1075.26,523.607L873.455,1319.66L953.109,1303L1137.42,575.937L1075.26,523.607Z" style="fill:rgb(255,165,27);"/>
            </g>
            <g>
                <path d="M1496.36,351.964L1376.24,1164.37L1309.1,1118.6L1418.81,376.614L1496.36,351.964Z" style="fill:rgb(255,198,27);"/>
                <path d="M1496.36,351.964L1376.24,1164.37L1453.8,1139.72L1563.51,397.728L1496.36,351.964Z" style="fill:rgb(255,165,27);"/>
            </g>
            <g>
                <path d="M1300.53,499.349L1261.61,1319.66L1190.25,1280.79L1225.8,531.572L1300.53,499.349Z" style="fill:rgb(255,198,27);"/>
                <path d="M1300.53,499.349L1261.61,1319.66L1336.33,1287.44L1371.88,538.225L1300.53,499.349Z" style="fill:rgb(255,165,27);"/>
            </g>
            <path d="M1276.04,787.395C1290.44,745.278 1330.02,716.977 1374.53,716.977C1420.12,716.898 1466.59,716.898 1466.59,716.898C1498.66,716.898 1528.95,731.676 1548.69,756.959C1568.43,782.242 1575.42,815.21 1567.64,846.329C1511.74,1069.97 1398.66,1522.27 1353.06,1704.66C1341.47,1751.03 1299.8,1783.57 1252.01,1783.57L881.334,1783.57C833.535,1783.57 791.87,1751.03 780.277,1704.66C734.678,1522.27 621.605,1069.97 565.694,846.329C557.914,815.21 564.905,782.242 584.646,756.959C604.386,731.676 634.674,716.898 666.751,716.898L758.808,716.898C803.351,716.898 842.965,745.221 857.374,787.37C886.748,874.777 969.41,937.775 1066.67,937.775C1163.93,937.775 1246.59,874.777 1276.04,787.395Z" style="fill:rgb(255,27,27);"/>
            <path d="M1472,1228.9L746.042,1567.73L716.761,1450.6L1509.02,1080.83L1472,1228.9Z" style="fill:rgb(255,188,27);"/>
            <circle cx="1060.97" cy="1319.66" r="207.989" style="fill:rgb(235,235,235);"/>
        </g>
    </g>
</svg>
