<?xml version="1.0" encoding="UTF-8" standalone="no"?><!DOCTYPE svg PUBLIC "-//W3C//DTD SVG 1.1//EN" "http://www.w3.org/Graphics/SVG/1.1/DTD/svg11.dtd"><svg width="100%" height="100%" viewBox="0 0 4267 4267" version="1.1" xmlns="http://www.w3.org/2000/svg" xmlns:xlink="http://www.w3.org/1999/xlink" xml:space="preserve" xmlns:serif="http://www.serif.com/" style="fill-rule:evenodd;clip-rule:evenodd;stroke-linecap:round;stroke-linejoin:round;stroke-miterlimit:1.5;"><path d="M3300.53,511.409c-0,-27.627 -10.975,-54.122 -30.51,-73.657c-19.535,-19.535 -46.03,-30.51 -73.657,-30.51l-2126.07,-0c-27.627,-0 -54.122,10.975 -73.657,30.51c-19.535,19.535 -30.51,46.03 -30.51,73.657l0,3243.85c0,27.627 10.975,54.122 30.51,73.657c19.535,19.535 46.03,30.51 73.657,30.51l2126.07,-0c27.627,-0 54.122,-10.975 73.657,-30.51c19.535,-19.535 30.51,-46.03 30.51,-73.657l-0,-3243.85Z" style="fill:#5fc0d8;"/><path d="M3300.53,172.24l-2334.4,0c0,0 71.41,116.358 113.734,185.321c18.944,30.868 52.562,49.681 88.78,49.681c296.314,-0 1633.06,-0 1929.37,-0c36.218,-0 69.837,-18.813 88.781,-49.681c42.324,-68.963 113.734,-185.321 113.734,-185.321Z" style="fill:#4760ae;"/><path d="M3300.53,4094.43l-2334.4,0c0,0 71.41,-116.357 113.734,-185.32c18.944,-30.869 52.562,-49.681 88.78,-49.681c296.314,-0 1633.06,-0 1929.37,-0c36.218,-0 69.837,18.812 88.781,49.681c42.324,68.963 113.734,185.32 113.734,185.32Z" style="fill:#4760ae;"/><circle cx="2133.22" cy="1759.69" r="720.656" style="fill:#ebebeb;"/><g><path d="M2133.22,1263.14l0,993.093" style="fill:none;stroke:#000;stroke-width:62.5px;"/><path d="M1982.53,1316l150.687,196.493l150.687,-196.493" style="fill:none;stroke:#000;stroke-width:62.5px;"/><path d="M2283.9,2203.38l-150.67,-196.505l-150.704,196.48" style="fill:none;stroke:#000;stroke-width:62.5px;"/></g><g><path d="M1703.29,2008.12l859.871,-496.845" style="fill:none;stroke:#000;stroke-width:62.5px;"/><path d="M1824.45,2112.14l94.745,-228.778l-245.523,-32.167" style="fill:none;stroke:#000;stroke-width:62.5px;"/><path d="M2442.01,1407.24l-94.764,228.771l245.52,32.187" style="fill:none;stroke:#000;stroke-width:62.5px;"/></g><g><path d="M2563.42,2007.65l-860.389,-495.949" style="fill:none;stroke:#000;stroke-width:62.5px;"/><path d="M2592.88,1850.71l-245.489,32.422l94.983,228.68" style="fill:none;stroke:#000;stroke-width:62.5px;"/><path d="M1673.57,1668.65l245.492,-32.402l-94.964,-228.687" style="fill:none;stroke:#000;stroke-width:62.5px;"/></g><path d="M1533.86,2851.54l1198.97,-0" style="fill:none;stroke:#000;stroke-width:62.5px;"/><path d="M1533.86,3228.41l1198.97,-0" style="fill:none;stroke:#000;stroke-width:62.5px;"/><path d="M1132.22,2851.54l280.342,-0" style="fill:none;stroke:#000;stroke-width:62.5px;"/><path d="M1132.22,3228.41l280.342,-0" style="fill:none;stroke:#000;stroke-width:62.5px;"/><path d="M2854.11,2851.54l280.342,-0" style="fill:none;stroke:#000;stroke-width:62.5px;"/><path d="M2854.11,3228.41l280.342,-0" style="fill:none;stroke:#000;stroke-width:62.5px;"/></svg>