<?xml version="1.0" encoding="UTF-8" standalone="no"?><!DOCTYPE svg PUBLIC "-//W3C//DTD SVG 1.1//EN" "http://www.w3.org/Graphics/SVG/1.1/DTD/svg11.dtd"><svg width="100%" height="100%" viewBox="0 0 4267 4267" version="1.1" xmlns="http://www.w3.org/2000/svg" xmlns:xlink="http://www.w3.org/1999/xlink" xml:space="preserve" xmlns:serif="http://www.serif.com/" style="fill-rule:evenodd;clip-rule:evenodd;stroke-linecap:round;stroke-linejoin:round;stroke-miterlimit:1.5;"><g><path d="M2152.44,3032.82c24.057,23.613 57.686,44.044 87.583,59.486c74.537,38.495 159.445,66.063 243.154,75.402c48.897,5.456 100.775,5.982 141.348,-22.345c100.241,-69.988 107.287,-209.618 193.395,-290.339c40.765,-38.216 94.863,-42.235 149.464,-52.625c35.966,-6.843 96.672,-7.855 116.282,-46.461c13.912,-27.386 -1.331,-57.486 -16.675,-81.565c-35.973,-56.454 -93.541,-102.925 -119.226,-165.05c-26.457,-63.992 5.837,-132.496 13.666,-195.758c3.28,-26.505 7.867,-64.367 -22.625,-81.322c-44.161,-24.555 -135.546,-5.625 -172.592,-2.487c-86.525,7.329 -182.383,25.231 -265.925,-13.937c-81.725,-38.317 -142.629,-110.465 -214.913,-161.678c-24.868,-17.619 -81.227,-45.562 -111.041,-21.821c-31.899,25.402 -38.156,61.984 -47.197,98.72c-12.708,51.631 -17.678,117.021 -63.687,154.547c-53.736,43.828 -132.737,49.169 -196.745,73.195c-23.621,8.866 -58.047,23.267 -56.382,53.248c2.657,47.818 86.474,97.167 112.632,117.294c64.862,49.905 152.14,99.014 176.354,180.518c19.199,64.622 6.644,132.211 10.413,197.784c2.487,43.273 8.337,91.448 42.717,125.194Z" style="fill:#0d7507;"/><path d="M1832.6,3012.95c15.495,17.172 37.792,34.625 57.752,48.723c49.763,35.148 107.275,66.703 164.877,88.52c33.647,12.745 69.611,23.525 99.192,16.986c73.085,-16.156 85.037,-87.463 148.859,-112.072c30.215,-11.651 67.95,-2.789 106.356,2.857c25.297,3.719 67.464,15.486 83.023,-0.653c11.037,-11.448 1.984,-30.214 -7.442,-45.864c-22.101,-36.692 -59.689,-72.558 -74.365,-110.12c-15.117,-38.692 10.753,-67.835 19.385,-99.203c3.617,-13.142 8.715,-31.936 -11.582,-46.943c-29.395,-21.734 -93.752,-30.38 -119.612,-36.248c-60.399,-13.705 -127.807,-23.793 -183.784,-61.114c-54.759,-36.51 -93.362,-86.426 -140.919,-127.742c-16.361,-14.214 -54.048,-40.183 -75.932,-33.854c-23.416,6.772 -29.607,24.56 -37.738,41.865c-11.429,24.321 -18.185,57.376 -52.003,67.606c-39.497,11.947 -94.576,-1.269 -140.198,-1.717c-16.836,-0.165 -41.448,0.364 -41.809,16.319c-0.576,25.446 55.076,68.127 72.206,83.908c42.473,39.131 100.539,82.388 113.215,129.747c10.05,37.55 -2.08,70.214 -2.783,105.134c-0.464,23.045 1.158,49.324 23.302,73.865Z" style="fill:#5ec058;"/><g><path d="M2590.83,2295.94c176.184,23.5 300.693,181.496 277.869,352.602c-22.823,171.106 -184.391,290.943 -360.575,267.442c-176.183,-23.5 -300.692,-181.496 -277.868,-352.602c22.823,-171.106 184.391,-290.943 360.574,-267.442Z" style="fill:#ff4b2d;stroke:#b80505;stroke-width:24.14px;"/><path d="M2562.68,2506.99c53.928,7.194 91.796,57.378 84.51,111.998c-7.286,54.621 -56.983,93.125 -110.911,85.932c-53.928,-7.193 -91.796,-57.378 -84.51,-111.998c7.285,-54.62 56.983,-93.125 110.911,-85.932Z" style="fill:#ff917e;"/><path d="M2576.97,2399.88c118.43,15.797 202.346,120.341 187.277,233.314c-15.069,112.972 -123.453,191.866 -241.883,176.069c-118.43,-15.797 -202.347,-120.342 -187.277,-233.314c15.069,-112.972 123.453,-191.866 241.883,-176.069Zm-6.826,51.173c88.823,11.848 151.76,90.256 140.458,174.985c-11.302,84.729 -92.59,143.9 -181.412,132.052c-88.823,-11.848 -151.76,-90.256 -140.458,-174.985c11.301,-84.73 92.59,-143.9 181.412,-132.052Z" style="fill:#ff917e;"/><path d="M2561.16,2429.66c0,-0 13.309,4.917 18.422,3.938c3.974,-0.761 6.583,-4.605 5.822,-8.58c-0.761,-3.974 -4.605,-6.583 -8.58,-5.822c-5.112,0.979 -15.664,10.464 -15.664,10.464Z" style="fill:#ff9225;"/><path d="M2627.46,2428.14c0,0 -10.614,9.415 -12.163,14.385c-1.204,3.864 0.955,7.978 4.819,9.182c3.863,1.204 7.977,-0.955 9.181,-4.819c1.549,-4.97 -1.837,-18.748 -1.837,-18.748Z" style="fill:#ff9225;"/><path d="M2673.76,2463.71c0,-0 -11.814,-7.857 -17.014,-8.085c-4.043,-0.177 -7.469,2.962 -7.646,7.004c-0.178,4.043 2.961,7.469 7.004,7.646c5.2,0.228 17.656,-6.565 17.656,-6.565Z" style="fill:#ff9225;"/><path d="M2695.8,2507.18c0,0 4.578,-13.429 3.47,-18.515c-0.861,-3.954 -4.771,-6.464 -8.725,-5.603c-3.954,0.862 -6.464,4.771 -5.603,8.725c1.109,5.086 10.858,15.393 10.858,15.393Z" style="fill:#ff9225;"/><path d="M2707.73,2536.55c-0,-0 14.153,0.995 18.787,-1.376c3.603,-1.843 5.032,-6.264 3.189,-9.866c-1.843,-3.603 -6.264,-5.032 -9.867,-3.189c-4.635,2.371 -12.109,14.431 -12.109,14.431Z" style="fill:#ff9225;"/><path d="M2726.19,2561.53c-0,0 2.653,13.938 6.129,17.813c2.702,3.012 7.341,3.264 10.354,0.562c3.012,-2.702 3.264,-7.342 0.561,-10.354c-3.476,-3.875 -17.044,-8.021 -17.044,-8.021Z" style="fill:#ff9225;"/><path d="M2740.95,2603.09c-0,0 -12.798,6.126 -15.656,10.477c-2.222,3.382 -1.28,7.931 2.102,10.153c3.382,2.223 7.932,1.281 10.154,-2.101c2.858,-4.351 3.4,-18.529 3.4,-18.529Z" style="fill:#ff9225;"/><path d="M2740.66,2656.16c-0,-0 -12.639,-6.447 -17.831,-6.076c-4.037,0.289 -7.079,3.8 -6.791,7.837c0.289,4.036 3.8,7.079 7.837,6.79c5.192,-0.371 16.785,-8.551 16.785,-8.551Z" style="fill:#ff9225;"/><path d="M2716.76,2709.53c0,0 -2.554,-13.956 -6.002,-17.855c-2.681,-3.032 -7.318,-3.317 -10.35,-0.636c-3.031,2.681 -3.316,7.318 -0.635,10.35c3.448,3.899 16.987,8.141 16.987,8.141Z" style="fill:#ff9225;"/><path d="M2678.95,2743.17c0,-0 9.537,-10.505 10.541,-15.613c0.78,-3.971 -1.81,-7.828 -5.781,-8.608c-3.97,-0.78 -7.828,1.81 -8.608,5.78c-1.004,5.108 3.848,18.441 3.848,18.441Z" style="fill:#ff9225;"/><path d="M2635.77,2765.28c-0,0 14.137,1.197 18.805,-1.108c3.628,-1.792 5.12,-6.192 3.328,-9.82c-1.791,-3.629 -6.192,-5.12 -9.82,-3.329c-4.668,2.305 -12.313,14.257 -12.313,14.257Z" style="fill:#ff9225;"/><path d="M2592.61,2770.46c-0,-0 7.635,11.958 12.301,14.266c3.627,1.795 8.028,0.307 9.823,-3.32c1.795,-3.626 0.307,-8.028 -3.32,-9.823c-4.666,-2.308 -18.804,-1.123 -18.804,-1.123Z" style="fill:#ff9225;"/><path d="M2560.94,2771.8c-0,0 -4.864,13.329 -3.864,18.438c0.777,3.971 4.632,6.564 8.603,5.787c3.971,-0.777 6.565,-4.632 5.788,-8.603c-1,-5.109 -10.527,-15.622 -10.527,-15.622Z" style="fill:#ff9225;"/><path d="M2522.49,2774.13c0,0 -13.542,4.231 -16.994,8.128c-2.683,3.029 -2.402,7.667 0.627,10.35c3.029,2.683 7.667,2.402 10.35,-0.627c3.452,-3.897 6.017,-17.851 6.017,-17.851Z" style="fill:#ff9225;"/><path d="M2484.7,2767.97c0,-0 -11.585,-8.19 -16.778,-8.565c-4.036,-0.292 -7.55,2.747 -7.842,6.784c-0.292,4.036 2.748,7.55 6.784,7.842c5.192,0.375 17.836,-6.061 17.836,-6.061Z" style="fill:#ff9225;"/><path d="M2436.64,2755.22c-0,-0 -0.53,-14.179 -3.385,-18.532c-2.219,-3.383 -6.768,-4.329 -10.152,-2.11c-3.384,2.219 -4.33,6.768 -2.11,10.152c2.854,4.353 15.647,10.49 15.647,10.49Z" style="fill:#ff9225;"/><path d="M2396.25,2729.2c0,-0 10.942,-9.032 12.667,-13.944c1.34,-3.818 -0.671,-8.006 -4.49,-9.347c-3.818,-1.34 -8.006,0.671 -9.346,4.489c-1.725,4.912 1.169,18.802 1.169,18.802Z" style="fill:#ff9225;"/><path d="M2367.68,2688.67c-0,-0 13.82,3.208 18.77,1.595c3.847,-1.254 5.953,-5.396 4.699,-9.243c-1.254,-3.848 -5.395,-5.954 -9.243,-4.7c-4.949,1.613 -14.226,12.348 -14.226,12.348Z" style="fill:#ff9225;"/><path d="M2356.06,2644.54c-0,-0 5.845,12.928 10.132,15.88c3.333,2.295 7.902,1.453 10.197,-1.88c2.295,-3.332 1.453,-7.902 -1.88,-10.197c-4.287,-2.952 -18.449,-3.803 -18.449,-3.803Z" style="fill:#ff9225;"/><path d="M2362.74,2601.45c0,0 -6.721,12.495 -6.463,17.695c0.201,4.041 3.645,7.16 7.687,6.959c4.041,-0.2 7.16,-3.645 6.959,-7.686c-0.258,-5.199 -8.183,-16.968 -8.183,-16.968Z" style="fill:#ff9225;"/><path d="M2373.36,2561.98c-0,-0 -14.009,2.249 -17.983,5.612c-3.089,2.614 -3.475,7.244 -0.861,10.333c2.614,3.089 7.244,3.475 10.334,0.861c3.973,-3.363 8.51,-16.806 8.51,-16.806Z" style="fill:#ff9225;"/><path d="M2392.13,2535.7c-0,0 -10.295,-9.763 -15.38,-10.878c-3.952,-0.866 -7.865,1.639 -8.732,5.592c-0.867,3.953 1.639,7.865 5.592,8.732c5.085,1.115 18.52,-3.446 18.52,-3.446Z" style="fill:#ff9225;"/><path d="M2403.03,2510.55c0,0 1.505,-14.108 -0.698,-18.824c-1.712,-3.667 -6.079,-5.254 -9.745,-3.542c-3.667,1.712 -5.254,6.079 -3.542,9.746c2.203,4.716 13.985,12.62 13.985,12.62Z" style="fill:#ff9225;"/><path d="M2420.02,2476.96c0,-0 12.122,-7.373 14.532,-11.987c1.873,-3.587 0.482,-8.02 -3.105,-9.893c-3.587,-1.874 -8.02,-0.482 -9.893,3.105c-2.41,4.614 -1.534,18.775 -1.534,18.775Z" style="fill:#ff9225;"/><path d="M2452.22,2445.39c0,-0 13.22,5.152 18.349,4.264c3.987,-0.69 6.664,-4.487 5.974,-8.475c-0.69,-3.987 -4.488,-6.664 -8.475,-5.974c-5.13,0.888 -15.848,10.185 -15.848,10.185Z" style="fill:#ff9225;"/><path d="M2498.56,2421.45c0,-0 3.935,13.631 7.756,17.167c2.97,2.749 7.612,2.569 10.361,-0.401c2.749,-2.97 2.569,-7.613 -0.401,-10.361c-3.821,-3.536 -17.716,-6.405 -17.716,-6.405Z" style="fill:#ff9225;"/><path d="M2540.95,2410.95c-0,0 -8.44,11.405 -8.929,16.588c-0.38,4.028 2.582,7.608 6.611,7.988c4.029,0.38 7.608,-2.583 7.988,-6.612c0.489,-5.182 -5.67,-17.964 -5.67,-17.964Z" style="fill:#ff9225;"/></g><g><path d="M3249.26,2193.42c122.456,126.594 151.058,297.876 63.83,382.252c-87.227,84.376 -257.464,50.1 -379.92,-76.495c-122.457,-126.595 -151.058,-297.876 -63.831,-382.252c87.228,-84.376 257.465,-50.1 379.921,76.495Z" style="fill:#ff4b2d;stroke:#b80505;stroke-width:24.14px;"/><path d="M3141.67,2297.49c37.482,38.749 45.307,92.076 17.463,119.01c-27.845,26.935 -80.882,17.342 -118.365,-21.407c-37.483,-38.749 -45.308,-92.076 -17.463,-119.011c27.845,-26.934 80.882,-17.342 118.365,21.408Z" style="fill:#ff917e;"/><path d="M3196.28,2244.67c82.315,85.097 102.387,199.413 44.795,255.122c-57.592,55.709 -171.178,31.85 -253.493,-53.247c-82.315,-85.097 -102.387,-199.413 -44.796,-255.122c57.592,-55.709 171.179,-31.85 253.494,53.247Zm-26.088,25.234c61.737,63.823 76.791,149.56 33.597,191.342c-43.194,41.782 -128.384,23.887 -190.12,-39.935c-61.736,-63.823 -76.79,-149.56 -33.596,-191.342c43.193,-41.782 128.383,-23.887 190.119,39.935Z" style="fill:#ff917e;"/><path d="M3172.22,2251.77c-0,-0 8.883,11.971 13.512,14.936c2.565,1.644 5.507,0.715 6.566,-2.073c1.058,-2.788 -0.166,-6.386 -2.732,-8.03c-4.628,-2.965 -17.346,-4.833 -17.346,-4.833Z" style="fill:#ff9225;"/><path d="M3222.55,2293.41c-0,-0 -10.588,-2.082 -13.259,-0.51c-3.454,2.034 -4.308,6.262 -1.905,9.437c2.403,3.174 7.158,4.1 10.613,2.067c2.671,-1.573 4.551,-10.994 4.551,-10.994Z" style="fill:#ff9225;"/><path d="M3242.69,2343.69c0,0 -6.707,-13.097 -10.971,-16.982c-2.115,-1.927 -5.285,-1.685 -7.074,0.541c-1.79,2.226 -1.525,5.597 0.59,7.524c4.264,3.885 17.455,8.917 17.455,8.917Z" style="fill:#ff9225;"/><path d="M3241.39,2382.97c0,0 8.53,-3.651 9.609,-6.798c1.295,-3.774 -0.348,-8.492 -3.665,-10.529c-3.317,-2.037 -7.061,-0.628 -8.356,3.146c-1.079,3.147 2.412,14.181 2.412,14.181Z" style="fill:#ff9225;"/><path d="M3238.3,2407.63c0,0 10.482,9.754 15.048,11.397c3.236,1.165 5.94,-0.541 6.034,-3.808c0.095,-3.267 -2.455,-6.865 -5.691,-8.029c-4.566,-1.644 -15.391,0.44 -15.391,0.44Z" style="fill:#ff9225;"/><path d="M3241.91,2433.92c0,-0 -3.727,9.745 -2.711,14.208c0.795,3.493 4.173,6.628 7.539,6.996c3.365,0.368 5.452,-2.168 4.657,-5.661c-1.016,-4.463 -9.485,-15.543 -9.485,-15.543Z" style="fill:#ff9225;"/><path d="M3235.94,2467.44c0,-0 -11.029,-4.851 -14.494,-4.247c-3.9,0.68 -5.746,4.037 -4.121,7.492c1.625,3.455 6.11,5.708 10.009,5.028c3.466,-0.604 8.606,-8.273 8.606,-8.273Z" style="fill:#ff9225;"/><path d="M3213.98,2497.97c-0,0 -7.878,-12.64 -12.37,-16.1c-2.321,-1.788 -5.373,-1.193 -6.811,1.328c-1.437,2.521 -0.72,6.019 1.601,7.807c4.493,3.459 17.58,6.965 17.58,6.965Z" style="fill:#ff9225;"/><path d="M3174.18,2513.52c0,0 3.814,-9.671 2.831,-14.121c-0.775,-3.507 -4.141,-6.674 -7.513,-7.067c-3.371,-0.393 -5.478,2.136 -4.703,5.643c0.983,4.45 9.385,15.545 9.385,15.545Z" style="fill:#ff9225;"/><path d="M3132.06,2508.73c-0,-0 10.313,0.964 12.669,-0.95c3.112,-2.529 3.482,-7.016 0.825,-10.014c-2.657,-2.998 -7.341,-3.379 -10.453,-0.851c-2.357,1.915 -3.041,11.815 -3.041,11.815Z" style="fill:#ff9225;"/><path d="M3090.62,2493.83c-0,-0 10.428,9.879 15.009,11.59c3.203,1.196 5.919,-0.47 6.063,-3.719c0.143,-3.249 -2.34,-6.857 -5.542,-8.054c-4.581,-1.711 -15.53,0.183 -15.53,0.183Z" style="fill:#ff9225;"/><path d="M3056.15,2469.15c0,-0 1.374,12.748 4.161,17.476c1.551,2.63 5.108,3.996 7.94,3.048c2.832,-0.948 3.872,-3.853 2.321,-6.483c-2.787,-4.727 -14.422,-14.041 -14.422,-14.041Z" style="fill:#ff9225;"/><path d="M3031.85,2449.62c0,-0 -8.66,3.396 -9.812,6.48c-1.398,3.741 0.143,8.481 3.438,10.578c3.296,2.097 7.107,0.763 8.505,-2.978c1.152,-3.084 -2.131,-14.08 -2.131,-14.08Z" style="fill:#ff9225;"/><path d="M3002.07,2426.3c-0,-0 -11.098,-6.245 -14.944,-6.207c-3.875,0.038 -6.071,2.907 -4.899,6.402c1.171,3.496 5.269,6.302 9.144,6.264c3.846,-0.038 10.699,-6.459 10.699,-6.459Z" style="fill:#ff9225;"/><path d="M2976.26,2398.5c0,0 -6.391,-13.176 -10.585,-17.155c-2.069,-1.964 -5.27,-1.814 -7.142,0.334c-1.873,2.149 -1.714,5.487 0.355,7.45c4.194,3.979 17.372,9.371 17.372,9.371Z" style="fill:#ff9225;"/><path d="M2945.46,2360.3c0,0 5.451,-8.073 5.111,-12.22c-0.307,-3.754 -3.355,-7.52 -6.801,-8.406c-3.446,-0.886 -5.995,1.442 -5.687,5.195c0.34,4.148 7.377,15.431 7.377,15.431Z" style="fill:#ff9225;"/><path d="M2925.84,2319.33c-0,-0 10.664,2.442 13.439,0.985c3.547,-1.863 4.549,-5.993 2.236,-9.218c-2.314,-3.224 -7.071,-4.33 -10.619,-2.466c-2.774,1.457 -5.056,10.699 -5.056,10.699Z" style="fill:#ff9225;"/><path d="M2921.03,2277.56c-0,-0 9.734,11.072 14.4,13.464c2.856,1.464 5.692,0.193 6.329,-2.838c0.637,-3.03 -1.166,-6.68 -4.022,-8.144c-4.666,-2.392 -16.707,-2.482 -16.707,-2.482Z" style="fill:#ff9225;"/><path d="M2930.4,2244.58c-0,-0 -0.626,11.874 1.503,16.609c1.329,2.957 4.914,4.987 8.001,4.531c3.086,-0.457 4.513,-3.228 3.183,-6.186c-2.128,-4.734 -12.687,-14.954 -12.687,-14.954Z" style="fill:#ff9225;"/><path d="M2953.07,2223.92c0,0 -9.421,1.711 -11.042,4.367c-2.087,3.421 -1.256,8.208 1.857,10.685c3.112,2.476 7.334,1.708 9.422,-1.713c1.62,-2.656 -0.237,-13.339 -0.237,-13.339Z" style="fill:#ff9225;"/><path d="M2977.2,2207.89c-0,0 -11.02,-7.627 -15.204,-8.206c-3.706,-0.512 -6.151,1.884 -5.457,5.348c0.694,3.464 4.266,6.692 7.971,7.205c4.184,0.579 12.69,-4.347 12.69,-4.347Z" style="fill:#ff9225;"/><path d="M3002.04,2204.73c-0,-0 -4.662,-13.353 -8.423,-17.731c-1.863,-2.169 -5.218,-2.524 -7.487,-0.792c-2.27,1.731 -2.6,4.898 -0.737,7.067c3.761,4.378 16.647,11.456 16.647,11.456Z" style="fill:#ff9225;"/><path d="M3020.52,2197.16c0,-0 6.852,-6.358 7.109,-10.139c0.264,-3.883 -2.323,-8.141 -5.773,-9.502c-3.45,-1.361 -6.466,0.687 -6.73,4.57c-0.258,3.782 5.394,15.071 5.394,15.071Z" style="fill:#ff9225;"/><path d="M3047.03,2188.62c0,0 10.914,3.872 14.1,2.903c3.816,-1.161 5.355,-4.851 3.433,-8.236c-1.922,-3.384 -6.58,-5.19 -10.396,-4.029c-3.186,0.969 -7.137,9.362 -7.137,9.362Z" style="fill:#ff9225;"/><path d="M3084.1,2191.01c-0,0 8.744,12.084 13.359,15.127c2.527,1.666 5.485,0.786 6.601,-1.964c1.117,-2.75 -0.028,-6.335 -2.555,-8.002c-4.615,-3.043 -17.405,-5.161 -17.405,-5.161Z" style="fill:#ff9225;"/><path d="M3128.65,2206.87c-0,-0 -2.555,10.669 -1.105,15.276c1.036,3.292 4.539,6.001 7.816,6.045c3.278,0.044 5.098,-2.593 4.061,-5.885c-1.45,-4.607 -10.772,-15.436 -10.772,-15.436Z" style="fill:#ff9225;"/><path d="M3164.73,2227.98c-0,-0 -9.998,0.105 -12.059,2.327c-2.726,2.94 -2.614,7.604 0.251,10.407c2.864,2.804 7.404,2.693 10.13,-0.247c2.061,-2.222 1.678,-12.487 1.678,-12.487Z" style="fill:#ff9225;"/></g><path d="M3079.67,3115.52c35.266,-1.966 77.856,-11.262 114.268,-20.946c90.778,-24.141 185.505,-60.122 269.381,-104.884c48.994,-26.146 98.17,-56.627 121.304,-95.43c57.157,-95.871 -10.66,-172.758 27.452,-265.839c18.043,-44.067 66.887,-78.231 112.809,-116.01c30.247,-24.885 86.923,-61.4 84.82,-93.129c-1.492,-22.509 -31.909,-29.146 -59.211,-32.588c-64.009,-8.072 -143.047,1.857 -200.383,-15.266c-59.06,-17.639 -65.151,-72.456 -91.507,-110.04c-11.043,-15.746 -26.909,-38.182 -64.689,-28.935c-54.715,13.394 -130.752,77.427 -163.994,101.023c-77.642,55.111 -158.441,121.26 -258.065,150.39c-97.459,28.496 -193.334,27.031 -288.771,43.215c-32.833,5.568 -100.852,24.428 -116.291,54.465c-16.52,32.139 -2.909,54.897 8.158,79.387c15.555,34.419 45.74,71.416 22.387,118.233c-27.275,54.678 -98.885,104.294 -146.401,154.751c-17.535,18.62 -42.302,46.527 -24.745,61.152c28.002,23.326 133.315,-0.666 168.702,-5.692c87.744,-12.465 196.191,-38.633 262.474,-10.546c52.555,22.269 76.764,64.908 115.282,96.82c25.419,21.059 56.622,42.677 107.02,39.869Z" style="fill:#5ec058;"/><path d="M2621.28,2260.7c7.769,-15.984 8.871,-34.4 3.063,-51.197c-5.809,-16.797 -18.052,-30.599 -34.036,-38.368c-40.16,-19.522 -92.739,-45.08 -132.899,-64.602c-15.984,-7.77 -34.401,-8.872 -51.198,-3.064c-16.796,5.809 -30.598,18.052 -38.368,34.036c-0.001,0.002 -0.001,0.003 -0.002,0.005c-7.77,15.984 -8.872,34.401 -3.063,51.197c5.808,16.797 18.051,30.599 34.036,38.369c40.16,19.522 92.738,45.08 132.898,64.601c15.985,7.77 34.401,8.872 51.198,3.064c16.797,-5.809 30.598,-18.052 38.368,-34.036c0.001,-0.002 0.002,-0.003 0.003,-0.005Z" style="fill:#ff6300;"/><path d="M2227.39,2407.12c-1.264,-17.727 -9.519,-34.227 -22.949,-45.868c-13.429,-11.641 -30.933,-17.471 -48.661,-16.206c-44.541,3.177 -102.853,7.337 -147.394,10.514c-17.728,1.264 -34.227,9.519 -45.869,22.949c-11.641,13.429 -17.47,30.934 -16.206,48.661c0,0.002 0,0.004 0.001,0.005c1.264,17.728 9.519,34.227 22.949,45.869c13.429,11.641 30.933,17.47 48.661,16.206c44.541,-3.177 102.853,-7.337 147.394,-10.514c17.728,-1.264 34.227,-9.52 45.869,-22.949c11.641,-13.43 17.47,-30.934 16.206,-48.662c-0,-0.001 -0,-0.003 -0.001,-0.005Z" style="fill:#ff6300;"/><path d="M3439.98,2826.01c10.416,-14.401 14.684,-32.35 11.867,-49.898c-2.818,-17.548 -12.491,-33.258 -26.892,-43.674c-36.182,-26.169 -83.551,-60.431 -119.732,-86.601c-14.401,-10.415 -32.35,-14.684 -49.898,-11.866c-17.548,2.817 -33.258,12.491 -43.674,26.891c-0.001,0.002 -0.002,0.003 -0.003,0.004c-10.416,14.401 -14.684,32.35 -11.866,49.898c2.817,17.548 12.491,33.258 26.891,43.674c36.182,26.17 83.551,60.431 119.733,86.601c14.4,10.416 32.349,14.684 49.897,11.866c17.548,-2.817 33.258,-12.491 43.674,-26.891c0.001,-0.002 0.002,-0.003 0.003,-0.004Z" style="fill:#ff6300;"/></g><g><path d="M2945.44,2689.55l-1154.04,-107.18l-13.643,146.9l1154.04,107.18l13.643,-146.9Z" style="fill:#d5d5d5;"/><path d="M3036.01,2620.74c20.218,-12.211 45.594,-11.982 65.588,0.594c19.994,12.575 31.191,35.348 28.94,58.861c-5.952,62.177 -13.144,137.321 -19.096,199.498c-2.251,23.513 -17.564,43.748 -39.581,52.302c-22.017,8.555 -46.975,3.966 -64.51,-11.86c-53.244,-48.055 -109.757,-99.06 -109.757,-99.06l11.859,-123.895c0,0 65.163,-39.358 126.557,-76.44Z" style="fill:#d5d5d5;"/><path d="M1289.71,2210.95c438.905,40.729 778.795,251.015 758.538,469.298c-20.256,218.284 -393.037,362.435 -831.942,321.705c-438.905,-40.73 -778.795,-251.015 -758.539,-469.299c20.256,-218.283 393.037,-362.434 831.943,-321.704Z" style="fill:#c85324;"/></g><g><path d="M3011.82,2966.69l-1771.83,-0l-0,0.001c-0,86.472 34.351,169.403 95.496,230.548c61.145,61.145 144.075,95.496 230.547,95.496l1119.74,-0c86.473,-0 169.403,-34.351 230.548,-95.496c61.145,-61.145 95.496,-144.076 95.496,-230.548c0,-0.001 0,-0.001 0,-0.001Z" style="fill:#d6d6d6;"/><path d="M3734.31,3038.13c24.808,-14.752 36.7,-44.262 29.051,-72.093c-7.65,-27.83 -32.954,-47.118 -61.816,-47.118l-3078.46,0c-28.863,0 -54.167,19.288 -61.816,47.118c-7.649,27.831 4.242,57.341 29.05,72.093c0.003,0.002 0.007,0.004 0.01,0.006c100.801,59.939 215.905,91.575 333.18,91.575l2477.61,0c117.276,0 232.38,-31.636 333.181,-91.575c0.003,-0.002 0.006,-0.004 0.009,-0.006Z" style="fill:#ebebeb;"/><path d="M3568.2,2918.92c28.862,0 54.166,19.288 61.816,47.118c7.649,27.831 -4.243,57.341 -29.051,72.093c-0.003,0.002 -0.006,0.004 -0.009,0.006c-100.801,59.939 -215.905,91.575 -333.181,91.575l-2344.26,0c510.298,0 1967.31,0 2477.61,0c117.276,0 232.38,-31.636 333.181,-91.575c0.003,-0.002 0.006,-0.004 0.009,-0.006c24.808,-14.752 36.7,-44.262 29.051,-72.093c-7.65,-27.83 -32.954,-47.118 -61.816,-47.118l-133.346,0Z" style="fill:#d5d5d5;"/></g><g><path d="M792.145,1076.87c-115.875,125.098 -128.418,258.774 -0,401.586" style="fill:none;stroke:#000;stroke-width:62.5px;"/><path d="M1194.58,973.929c-115.874,125.097 -128.418,258.774 0,401.586" style="fill:none;stroke:#000;stroke-width:62.5px;"/><path d="M1597.02,1076.87c-115.875,125.098 -128.418,258.774 -0,401.586" style="fill:none;stroke:#000;stroke-width:62.5px;"/><path d="M792.249,1880.04c115.842,-125.127 128.351,-258.807 -0.104,-401.586" style="fill:none;stroke:#000;stroke-width:62.5px;"/><path d="M1194.69,1777.1c115.841,-125.127 128.35,-258.807 -0.105,-401.586" style="fill:none;stroke:#000;stroke-width:62.5px;"/><path d="M1597.12,1880.04c115.842,-125.127 128.351,-258.807 -0.104,-401.586" style="fill:none;stroke:#000;stroke-width:62.5px;"/></g></svg>