<?xml version="1.0" encoding="UTF-8" standalone="no"?><!DOCTYPE svg PUBLIC "-//W3C//DTD SVG 1.1//EN" "http://www.w3.org/Graphics/SVG/1.1/DTD/svg11.dtd"><svg width="100%" height="100%" viewBox="0 0 4267 4267" version="1.1" xmlns="http://www.w3.org/2000/svg" xmlns:xlink="http://www.w3.org/1999/xlink" xml:space="preserve" xmlns:serif="http://www.serif.com/" style="fill-rule:evenodd;clip-rule:evenodd;stroke-linejoin:round;stroke-miterlimit:2;"><g><rect x="1571.83" y="1255.16" width="1179.78" height="2274.61" style="fill:#d3d3d3;"/><rect x="2751.61" y="1255.16" width="659.121" height="2411.03" style="fill:#bfbfbf;"/><path d="M3081.18,497.756l329.561,757.408l-659.122,0l329.561,-757.408Z" style="fill:#b1b1b1;"/><path d="M3081.18,343.44c0,-57.75 -40.644,-104.565 -90.779,-104.565l-1002.68,0c-50.137,0 -90.78,46.815 -90.78,104.565l0,154.316l1184.24,0l0,-154.316Z" style="fill:#d3d3d3;"/><path d="M1571.83,1255.16l329.56,-757.408l1179.78,0l-329.562,757.408l-1179.78,0Z" style="fill:#bfbfbf;"/><path d="M1662.61,3666.2c-24.076,0 -47.167,-11.017 -64.192,-30.627c-17.024,-19.609 -26.587,-46.206 -26.587,-73.94l-0,-1850.3l148.697,0c-0,0 -0.35,274.546 -0.58,453.964c-0.052,40.227 13.786,78.825 38.462,107.291c24.676,28.465 58.166,44.461 93.089,44.461l0.006,-0c34.84,-0 68.253,-15.943 92.888,-44.319c24.636,-28.377 38.476,-66.863 38.476,-106.994l0,-454.403l123.497,0l-0,178.18c-0,83.688 58.898,151.529 131.552,151.529l0.01,0c72.654,0 131.552,-67.841 131.552,-151.529l-0,-178.18l380.092,0l-0,1954.88l-1086.96,0l0,-0.015Z" style="fill:#49a530;"/><rect x="2751.61" y="1711.33" width="657.336" height="1954.86" style="fill:#217a09;"/><path d="M3247.07,1894.51c0,-18.489 -6.376,-36.219 -17.726,-49.293c-11.349,-13.073 -26.743,-20.417 -42.794,-20.417l-196.23,-0c-16.052,-0 -31.445,7.344 -42.795,20.417c-11.349,13.074 -17.726,30.804 -17.726,49.293l0,1519.58c0,18.489 6.377,36.219 17.726,49.293c11.35,13.073 26.743,20.417 42.795,20.417l196.23,0c16.051,0 31.445,-7.344 42.794,-20.417c11.35,-13.074 17.726,-30.804 17.726,-49.293l0,-1519.58Z" style="fill:#d3d3d3;"/><path d="M2236.12,2559.51c123.99,-25.482 302.542,142.173 249.066,359.357c-38.024,154.436 -256.527,546.593 -456.555,493.974c-119.838,-31.523 -332.327,-198.961 -243.847,-422.566c32.321,-81.681 184.406,-83.775 258.953,-154.923c75.222,-71.795 127.536,-262.515 192.383,-275.842Z" style="fill:#ffd474;"/><path d="M1928.06,2898.98c-0.573,22.591 85.179,94.287 121.265,57.101c21.225,-21.872 127.292,-123.464 123.754,-186.624c-2.477,-44.232 -26.288,-78.285 -31.654,-86.142c-13.029,-19.074 -53.107,101.283 -88.668,137.228c-35.511,35.893 -124.125,55.848 -124.697,78.437Z" style="fill:#d5ae58;"/><path d="M1355.12,3947.99c27.283,96.681 1876.08,-161.575 2218.56,-309.906c184.789,-80.034 35.743,-607.947 -163.696,-580.089c-369.759,51.651 -2082.14,793.313 -2054.86,889.995Z" style="fill:#ff6e00;"/><path d="M3551.72,3338.43c17.846,65.673 0.033,159.676 23.275,202.842c20.365,37.826 81.898,51.004 116.17,56.156c30.627,4.605 84.685,-0.12 89.457,-25.243c4.771,-25.124 -53.853,-79.539 -60.823,-125.499c-7.241,-47.756 31.751,-116.792 17.37,-161.045c-14.38,-44.255 -91.256,-66.485 -103.653,-104.478c-12.397,-37.995 43.447,-92.917 29.274,-123.485c-14.174,-30.567 -78.077,-61.026 -114.312,-59.922c-36.234,1.106 -103.487,25.73 -103.098,66.55c0.539,56.779 84.737,194.63 106.34,274.124Z" style="fill:#008402;"/><path d="M3183.86,3341.66c-13.385,-47.857 -39.67,-147.021 -41.631,-146.348c-1.962,0.673 16.472,102.531 29.857,150.386c13.087,46.79 48.49,137.422 50.452,136.749c1.961,-0.674 -25.571,-93.919 -38.678,-140.787Z" style="fill:#b64e00;"/><path d="M2605.44,3685.4c8.338,29.122 26.892,88.855 24.881,89.35c-2.012,0.496 -28.619,-57.257 -36.957,-86.38c-8.151,-28.472 -15.081,-87.852 -13.068,-88.347c2.012,-0.496 16.978,56.857 25.144,85.377Z" style="fill:#b64e00;"/><path d="M1972.29,3713.82c8.338,29.121 26.895,88.855 24.881,89.35c-2.012,0.495 -28.618,-57.259 -36.954,-86.38c-8.154,-28.473 -15.082,-87.854 -13.07,-88.349c2.013,-0.495 16.978,56.857 25.143,85.379Z" style="fill:#b64e00;"/><path d="M3024.97,3478.75c-16.143,-57.633 -48.122,-176.98 -50.078,-176.284c-1.956,0.695 22.2,122.827 38.345,180.459c15.783,56.349 56.563,166.034 58.518,165.337c1.956,-0.696 -30.973,-113.067 -46.785,-169.512Z" style="fill:#b64e00;"/><path d="M2407.73,3684.96c10.019,35.081 32.047,107.117 30.03,107.599c-2.016,0.48 -32.11,-69.631 -42.128,-104.712c-9.797,-34.299 -20.003,-105.294 -17.987,-105.775c2.016,-0.483 20.272,68.53 30.085,102.888Z" style="fill:#b64e00;"/><path d="M3441.25,3532.69c-11.017,-39.466 -32.414,-121.313 -34.382,-120.66c-1.968,0.653 11.558,85.117 22.575,124.583c10.772,38.586 41.562,112.868 43.529,112.215c1.968,-0.655 -20.932,-77.486 -31.722,-116.138Z" style="fill:#b64e00;"/><path d="M2908.88,3634.08c-13.385,-47.855 -39.668,-147.021 -41.631,-146.348c-1.962,0.673 16.472,102.532 29.859,150.388c13.085,46.79 48.488,137.42 50.45,136.747c1.963,-0.674 -25.569,-93.917 -38.678,-140.787Z" style="fill:#b64e00;"/><path d="M2240.08,3657.56c8.337,29.121 26.894,88.855 24.881,89.35c-2.012,0.495 -28.619,-57.258 -36.955,-86.38c-8.153,-28.472 -15.082,-87.854 -13.07,-88.348c2.013,-0.495 16.979,56.857 25.144,85.378Z" style="fill:#b64e00;"/><path d="M2711.92,3427.65c-4.983,-18.051 -14.05,-55.658 -15.851,-55.105c-1.802,0.553 0.06,40.373 5.045,58.423c4.874,17.649 23.063,50.435 24.865,49.881c1.8,-0.553 -9.177,-35.522 -14.059,-53.199Z" style="fill:#b64e00;"/><path d="M2153.36,3841.75c3.202,10.957 11.033,33.231 9.213,33.717c-1.821,0.487 -16.933,-19.843 -20.133,-30.8c-3.13,-10.714 -0.894,-34.459 0.926,-34.944c1.821,-0.488 6.859,21.296 9.994,32.027Z" style="fill:#b64e00;"/><path d="M1777.6,3858.44c5.437,18.883 17.886,57.518 16.059,57.985c-1.824,0.468 -21.573,-36.296 -27.012,-55.179c-5.315,-18.462 -7.437,-57.653 -5.613,-58.122c1.827,-0.467 11.24,36.821 16.566,55.316Z" style="fill:#b64e00;"/><path d="M1238.81,4080.42c-219.913,21.194 -656.444,-184.414 -743.909,-374.06c-87.467,-189.646 45.841,-627.06 219.112,-763.816c173.272,-136.755 637.123,-162.821 820.519,-56.713c183.393,106.108 329.131,494.265 279.844,693.363c-49.287,199.098 -355.652,480.03 -575.564,501.225l-0.002,0.001Z" style="fill:#ff1313;"/><path d="M1114.33,3022.74c84.056,10.622 302.134,249.446 302.134,249.446c0,-0 -188.042,-232.691 -172.675,-275.375c15.368,-42.683 264.882,19.273 264.882,19.273c-0,-0 -287.241,-72.118 -293.272,-111.933c-6.03,-39.816 257.089,-126.961 257.089,-126.961c-0,-0 -174.442,23.659 -261.789,18.735c-96.93,-5.464 -319.791,-51.52 -319.791,-51.52c0,0 60.283,63.892 48.088,98.256c-24.043,67.747 -192.34,308.223 -192.34,308.223c-0,0 175.941,-211.549 203.519,-201.954c27.577,9.595 -38.052,259.525 -38.052,259.525c-0,-0 118.15,-196.337 202.207,-185.715Z" style="fill:#038000;"/><path d="M1045.28,2861c0,-32.069 88.186,-95.286 91.186,-134.467c2.999,-39.18 -76.194,-82.112 -73.191,-100.617c3.003,-18.505 66.773,-27.181 91.211,-10.412c24.438,16.77 57.869,69.738 55.417,111.029c-3.003,50.574 -46,170.002 -73.437,192.413c-27.438,22.411 -91.186,-25.877 -91.186,-57.946Z" style="fill:#024100;"/></g></svg>