<?xml version="1.0" encoding="UTF-8" standalone="no"?><!DOCTYPE svg PUBLIC "-//W3C//DTD SVG 1.1//EN" "http://www.w3.org/Graphics/SVG/1.1/DTD/svg11.dtd"><svg width="100%" height="100%" viewBox="0 0 4267 4267" version="1.1" xmlns="http://www.w3.org/2000/svg" xmlns:xlink="http://www.w3.org/1999/xlink" xml:space="preserve" xmlns:serif="http://www.serif.com/" style="fill-rule:evenodd;clip-rule:evenodd;stroke-linecap:round;stroke-linejoin:round;stroke-miterlimit:1.5;"><g><path d="M3148.11,2680.03l-1154.04,-107.18l-13.643,146.9l1154.04,107.18l13.643,-146.9Z" style="fill:#d5d5d5;"/><path d="M3238.67,2611.22c20.218,-12.212 45.594,-11.983 65.588,0.593c19.994,12.575 31.191,35.348 28.94,58.861c-5.951,62.178 -13.144,137.321 -19.096,199.499c-2.251,23.512 -17.564,43.748 -39.581,52.302c-22.017,8.554 -46.975,3.965 -64.51,-11.86c-53.244,-48.055 -109.757,-99.06 -109.757,-99.06l11.859,-123.896c0,0 65.163,-39.358 126.557,-76.439Z" style="fill:#d5d5d5;"/><path d="M1492.38,2201.43c438.905,40.73 778.795,251.015 758.539,469.299c-20.257,218.283 -393.038,362.434 -831.943,321.704c-438.905,-40.73 -778.795,-251.015 -758.539,-469.298c20.256,-218.284 393.037,-362.435 831.943,-321.705Z" style="fill:#c85324;"/></g><path d="M2982.84,2957.17l-1771.83,0l-0,0.001c-0,86.473 34.351,169.403 95.496,230.548c61.145,61.145 144.075,95.496 230.548,95.496l1119.74,0c86.473,0 169.403,-34.351 230.548,-95.496c61.145,-61.145 95.496,-144.075 95.496,-230.548c0,-0 0,-0.001 0,-0.001Z" style="fill:#d6d6d6;"/><path d="M3705.33,3028.61c24.808,-14.751 36.7,-44.262 29.051,-72.093c-7.65,-27.83 -32.954,-47.118 -61.816,-47.118c-642.952,0 -2435.51,0 -3078.46,0c-28.863,0 -54.167,19.288 -61.816,47.118c-7.649,27.831 4.242,57.342 29.05,72.093c0.003,0.002 0.007,0.004 0.01,0.006c100.801,59.939 215.905,91.576 333.18,91.576c510.298,-0 1967.31,-0 2477.61,-0c117.275,-0 232.379,-31.637 333.18,-91.576c0.003,-0.002 0.006,-0.004 0.009,-0.006Z" style="fill:#ebebeb;"/><path d="M3539.22,2909.4c28.862,0 54.166,19.288 61.816,47.118c7.649,27.831 -4.243,57.342 -29.051,72.093c-0.003,0.002 -0.006,0.004 -0.009,0.006c-100.801,59.939 -215.905,91.576 -333.181,91.576l-2344.26,-0c510.298,-0 1967.31,-0 2477.61,-0c117.275,-0 232.379,-31.637 333.18,-91.576c0.003,-0.002 0.006,-0.004 0.009,-0.006c24.808,-14.751 36.7,-44.262 29.051,-72.093c-7.65,-27.83 -32.954,-47.118 -61.816,-47.118l-133.346,0Z" style="fill:#d5d5d5;"/><path d="M999.304,1086.39c-115.875,125.097 -128.418,258.774 -0,401.586" style="fill:none;stroke:#000;stroke-width:62.5px;"/><path d="M1401.74,983.449c-115.874,125.097 -128.418,258.774 0,401.586" style="fill:none;stroke:#000;stroke-width:62.5px;"/><path d="M1804.18,1086.39c-115.874,125.097 -128.418,258.774 -0,401.586" style="fill:none;stroke:#000;stroke-width:62.5px;"/><path d="M999.408,1889.56c115.842,-125.128 128.351,-258.808 -0.104,-401.586" style="fill:none;stroke:#000;stroke-width:62.5px;"/><path d="M1401.85,1786.62c115.842,-125.128 128.35,-258.808 -0.105,-401.586" style="fill:none;stroke:#000;stroke-width:62.5px;"/><path d="M1804.28,1889.56c115.842,-125.128 128.351,-258.808 -0.104,-401.586" style="fill:none;stroke:#000;stroke-width:62.5px;"/></svg>