<?xml version="1.0" encoding="UTF-8" standalone="no"?><!DOCTYPE svg PUBLIC "-//W3C//DTD SVG 1.1//EN" "http://www.w3.org/Graphics/SVG/1.1/DTD/svg11.dtd"><svg width="100%" height="100%" viewBox="0 0 4267 4267" version="1.1" xmlns="http://www.w3.org/2000/svg" xmlns:xlink="http://www.w3.org/1999/xlink" xml:space="preserve" xmlns:serif="http://www.serif.com/" style="fill-rule:evenodd;clip-rule:evenodd;stroke-linejoin:round;stroke-miterlimit:2;"><path d="M3570.75,1792.48l-2803.1,-0l-0,2069.07c-0,27.626 10.974,54.122 30.509,73.657c19.535,19.535 46.03,30.509 73.657,30.509l2594.77,0c27.626,0 54.122,-10.974 73.657,-30.509c19.535,-19.535 30.509,-46.031 30.509,-73.657l0,-2069.07Z" style="fill:#48b627;"/><path d="M2422.02,399.891c236.633,-129.682 485.061,-132.212 554.423,-5.647c69.361,126.565 -66.442,334.605 -303.075,464.287c-236.633,129.682 -485.062,132.212 -554.423,5.647c-69.361,-126.566 66.442,-334.606 303.075,-464.287Zm62.837,114.66c118.316,-64.841 242.531,-66.106 277.211,-2.824c34.681,63.283 -33.221,167.303 -151.537,232.144c-118.317,64.841 -242.531,66.106 -277.212,2.823c-34.68,-63.282 33.221,-167.302 151.538,-232.143Z" style="fill:#fa5e34;"/><path d="M1524.4,604.196c269.348,16.246 480.971,146.396 472.282,290.46c-8.689,144.063 -234.421,247.835 -503.769,231.589c-269.349,-16.245 -480.971,-146.396 -472.282,-290.459c8.689,-144.063 234.42,-247.835 503.769,-231.59Zm-7.872,130.512c134.674,8.123 240.485,73.198 236.141,145.23c-4.345,72.032 -117.21,123.918 -251.884,115.795c-134.675,-8.123 -240.486,-73.198 -236.141,-145.23c4.344,-72.031 117.21,-123.917 251.884,-115.795Z" style="fill:#fa5e34;"/><path d="M1937.66,534.313c102.824,-23.529 212.867,73.449 245.585,216.428c32.718,142.979 -24.2,278.163 -127.024,301.692c-102.824,23.529 -212.866,-73.449 -245.584,-216.428c-32.718,-142.979 24.199,-278.162 127.023,-301.692Z" style="fill:#fa5e34;"/><g><path d="M3436.4,711.167c-12.279,-56.204 -67.795,-91.813 -123.999,-79.534c-430.996,94.159 -2103.54,459.557 -2534.54,553.716c-56.204,12.279 -91.812,67.795 -79.533,123.999c27.097,124.031 69.316,317.281 69.316,317.281l2738.07,-598.181c0,0 -42.219,-193.25 -69.316,-317.281Z" style="fill:#48b627;"/><path d="M2262.34,1300.09l-251.305,54.902l-91.549,-419.048l251.305,-54.902l91.549,419.048Z" style="fill:#fa5e34;"/></g><rect x="2040.57" y="1792.48" width="257.273" height="2173.24" style="fill:#fa5e34;"/><rect x="767.651" y="2750.92" width="2803.1" height="256.352" style="fill:#fa5e34;"/><circle cx="2169.2" cy="2885.7" r="550.462" style="fill:#fff;"/><g><ellipse cx="2169.02" cy="3140.35" rx="39.99" ry="40.48"/><path d="M1966.94,2770.03c5.204,-47.98 21.183,-89.764 52.58,-122.682c34.52,-35.621 75.791,-53.15 122.657,-55.689c55.713,-3.788 101.71,2.278 134.77,21.46c39.469,20.269 67.14,51.512 84.398,92.442c15.921,44.814 12.485,85.962 -6.224,124.219c-19.279,31.126 -42.864,57.694 -68.759,81.814c-32.306,26.999 -60.112,53.042 -69.459,75.164c-8.517,17.618 -12.277,47.736 -12.984,85.874l-73.875,-0.332c-2.506,-31.855 0.353,-61.512 8.454,-89.023c5.546,-22.949 19.734,-48.657 51.519,-79.98c32.282,-26.959 64.005,-54.14 86.069,-85.14c21.819,-38.785 21.045,-76.769 -3.269,-113.919c-20.882,-29.045 -48.937,-45.22 -82.938,-50.648c-40.481,-4.262 -73.993,6.418 -101.352,30.288c-23.882,24.006 -36.949,56.839 -42.849,95.52l-78.738,-9.368Z"/></g></svg>