<?xml version="1.0" encoding="UTF-8" standalone="no"?><!DOCTYPE svg PUBLIC "-//W3C//DTD SVG 1.1//EN" "http://www.w3.org/Graphics/SVG/1.1/DTD/svg11.dtd"><svg width="100%" height="100%" viewBox="0 0 4267 4267" version="1.1" xmlns="http://www.w3.org/2000/svg" xmlns:xlink="http://www.w3.org/1999/xlink" xml:space="preserve" xmlns:serif="http://www.serif.com/" style="fill-rule:evenodd;clip-rule:evenodd;stroke-linejoin:round;stroke-miterlimit:2;"><rect x="837.116" y="1678.01" width="2592.43" height="1663.05" style="fill:#dbdbdb;"/><g><path d="M3753.61,1840.04l-3240.55,-0c0,-0 238.281,-635.319 317.615,-846.843c15.248,-40.654 54.113,-67.587 97.532,-67.587c368.975,0 2041.28,0 2410.25,0c43.42,0 82.285,26.933 97.533,67.587c79.333,211.524 317.615,846.843 317.615,846.843Z" style="fill:#ff3939;"/><path d="M3753.61,1840.04c-0,89.425 -72.602,162.027 -162.028,162.027c-89.425,-0 -162.027,-72.602 -162.027,-162.027l324.055,-0Z" style="fill:#ff3939;"/><path d="M3429.55,1840.04c0,89.425 -72.602,162.027 -162.027,162.027c-89.425,-0 -162.027,-72.602 -162.027,-162.027l324.054,-0Z" style="fill:#ff3939;"/><path d="M3105.5,1840.04c-0,89.425 -72.602,162.027 -162.028,162.027c-89.425,-0 -162.027,-72.602 -162.027,-162.027l324.055,-0Z" style="fill:#ff3939;"/><path d="M2781.44,1840.04c0,89.425 -72.602,162.027 -162.027,162.027c-89.425,-0 -162.027,-72.602 -162.027,-162.027l324.054,-0Z" style="fill:#ff3939;"/><path d="M2457.39,1840.04c-0,89.425 -72.602,162.027 -162.027,162.027c-89.426,-0 -162.028,-72.602 -162.028,-162.027l324.055,-0Z" style="fill:#ff3939;"/><path d="M2133.33,1840.04c0,89.425 -72.602,162.027 -162.027,162.027c-89.425,-0 -162.027,-72.602 -162.027,-162.027l324.054,-0Z" style="fill:#ff3939;"/><path d="M1809.28,1840.04c-0,89.425 -72.602,162.027 -162.027,162.027c-89.426,-0 -162.028,-72.602 -162.028,-162.027l324.055,-0Z" style="fill:#ff3939;"/><path d="M1485.22,1840.04c0,89.425 -72.602,162.027 -162.027,162.027c-89.425,-0 -162.027,-72.602 -162.027,-162.027l324.054,-0Z" style="fill:#ff3939;"/><path d="M1161.17,1840.04c0,89.425 -72.602,162.027 -162.027,162.027c-89.425,-0 -162.027,-72.602 -162.027,-162.027l324.054,-0Z" style="fill:#ff3939;"/><path d="M837.116,1840.04c-0,89.425 -72.602,162.027 -162.028,162.027c-89.425,-0 -162.027,-72.602 -162.027,-162.027l324.055,-0Z" style="fill:#ff3939;"/></g><circle cx="2133.33" cy="1382.82" r="352.011" style="fill:#fff;"/><path d="M2219.26,1295.23c-1.077,1.074 -2.536,1.677 -4.058,1.675c-1.521,-0.001 -2.979,-0.608 -4.053,-1.684c-0.561,-0.562 -1.136,-1.139 -1.696,-1.7c-1.074,-1.077 -1.677,-2.536 -1.675,-4.058c0.001,-1.521 0.607,-2.979 1.684,-4.054c13.738,-13.706 58.38,-58.246 72.118,-71.952c1.077,-1.074 1.683,-2.533 1.685,-4.054c0.002,-1.521 -0.601,-2.981 -1.676,-4.057c-0.008,-0.008 -0.016,-0.017 -0.024,-0.025c-1.074,-1.076 -2.532,-1.683 -4.054,-1.684c-1.521,-0.002 -2.98,0.601 -4.057,1.675c-13.738,13.706 -58.38,58.246 -72.118,71.952c-1.077,1.075 -2.537,1.677 -4.058,1.676c-1.521,-0.002 -2.979,-0.608 -4.054,-1.685c-0.225,-0.225 -0.45,-0.452 -0.675,-0.677c-1.074,-1.077 -1.677,-2.536 -1.675,-4.058c0.001,-1.521 0.607,-2.979 1.684,-4.054c13.738,-13.706 58.38,-58.246 72.118,-71.952c1.077,-1.074 1.683,-2.532 1.685,-4.054c0.002,-1.521 -0.601,-2.98 -1.676,-4.057c-0.018,-0.019 -0.037,-0.038 -0.056,-0.057c-1.074,-1.076 -2.532,-1.683 -4.054,-1.684c-1.521,-0.002 -2.98,0.601 -4.057,1.675c-13.738,13.706 -58.38,58.246 -72.118,71.952c-1.077,1.075 -2.537,1.678 -4.058,1.676c-1.521,-0.002 -2.979,-0.608 -4.054,-1.685c-0.56,-0.561 -1.135,-1.138 -1.695,-1.699c-1.074,-1.077 -1.677,-2.537 -1.675,-4.058c0.001,-1.521 0.607,-2.979 1.684,-4.054c13.738,-13.706 58.38,-58.246 72.118,-71.952c1.077,-1.074 1.683,-2.533 1.685,-4.054c0.001,-1.522 -0.601,-2.981 -1.676,-4.058c-0.008,-0.008 -0.016,-0.016 -0.024,-0.024c-2.237,-2.242 -5.869,-2.247 -8.111,-0.01l-80.92,80.734c-4.498,4.488 -4.506,11.771 -0.018,16.269l9.8,9.822c1.299,1.302 2.027,3.067 2.025,4.906c-0.002,1.839 -0.735,3.601 -2.036,4.9c-30.409,30.339 -193.015,192.572 -230.398,229.869c-2.034,2.029 -3.178,4.782 -3.181,7.654c-0.004,2.872 1.134,5.628 3.163,7.661c0,0.001 0,0.001 0.001,0.001c2.028,2.033 4.781,3.177 7.654,3.181c2.872,0.003 5.628,-1.135 7.661,-3.163c37.398,-37.312 200.117,-199.659 230.434,-229.905c1.292,-1.29 3.044,-2.013 4.869,-2.011c1.825,0.002 3.575,0.73 4.865,2.022l9.803,9.826c2.164,2.168 5.1,3.389 8.163,3.392c3.063,0.004 6.002,-1.21 8.171,-3.373c19.217,-19.174 66.707,-66.554 80.887,-80.701c2.242,-2.238 2.246,-5.869 0.008,-8.112c-0.018,-0.019 -0.037,-0.037 -0.056,-0.056c-1.074,-1.077 -2.532,-1.683 -4.054,-1.685c-1.52,-0.002 -2.98,0.601 -4.057,1.675c-13.738,13.707 -58.38,58.247 -72.118,71.953Z"/><path d="M2013.57,1608.91c2.768,2.775 6.525,4.336 10.445,4.34c3.919,0.005 7.679,-1.548 10.454,-4.316c49.745,-49.631 262.103,-261.501 314.106,-313.385c6.367,-6.353 6.379,-16.664 0.026,-23.031c-0,-0 -0.001,-0 -0.001,-0c-17.435,-17.475 -45.734,-17.508 -63.209,-0.073c-40.037,39.946 -107.484,107.238 -138.301,137.984c-4.308,4.298 -6.732,10.131 -6.739,16.215c-0.007,6.085 2.404,11.924 6.701,16.231c0.388,0.389 0.765,0.767 1.129,1.131c1.289,1.293 2.013,3.044 2.011,4.87c-0.003,1.825 -0.73,3.575 -2.022,4.864l-134.578,134.269c-2.775,2.769 -4.336,6.526 -4.34,10.445c-0.005,3.919 1.548,7.68 4.316,10.454c0,0.001 0.001,0.002 0.002,0.002Z"/><path d="M1581.67,2412.55c-0,-154.209 -125.012,-279.221 -279.221,-279.221l-0.001,0c-154.21,0 -279.221,125.012 -279.221,279.221l-0,720.103c-0,11.051 4.39,21.649 12.204,29.463c7.814,7.814 18.412,12.204 29.463,12.204c103.534,0 371.575,0 475.109,0c11.051,0 21.649,-4.39 29.463,-12.204c7.814,-7.814 12.204,-18.412 12.204,-29.463c-0,-118.998 -0,-468.027 -0,-720.103Z" style="fill:#69bac9;"/><path d="M3243.44,2175c-0,-23.012 -18.655,-41.667 -41.667,-41.667c-213.087,0 -1179.25,0 -1392.34,0c-23.012,0 -41.667,18.655 -41.667,41.667c0,167.429 0,790.228 0,957.657c0,23.012 18.655,41.667 41.667,41.667c213.087,0 1179.25,0 1392.34,0c23.012,0 41.667,-18.655 41.667,-41.667c-0,-167.429 -0,-790.228 -0,-957.657Z" style="fill:#69bac9;"/><path d="M1483.3,2618.97c0,-11.506 -9.327,-20.833 -20.833,-20.833c-63.83,-0 -256.217,-0 -320.047,-0c-11.506,-0 -20.834,9.327 -20.834,20.833c0,19.92 0,49.791 0,69.712c0,11.505 9.328,20.833 20.834,20.833c63.83,-0 256.217,-0 320.047,-0c11.506,-0 20.833,-9.328 20.833,-20.833c0,-19.921 0,-49.792 0,-69.712Z" style="fill:#2c5a8b;"/></svg>