<?xml version="1.0" encoding="UTF-8" standalone="no"?><!DOCTYPE svg PUBLIC "-//W3C//DTD SVG 1.1//EN" "http://www.w3.org/Graphics/SVG/1.1/DTD/svg11.dtd"><svg width="100%" height="100%" viewBox="0 0 4267 4267" version="1.1" xmlns="http://www.w3.org/2000/svg" xmlns:xlink="http://www.w3.org/1999/xlink" xml:space="preserve" xmlns:serif="http://www.serif.com/" style="fill-rule:evenodd;clip-rule:evenodd;stroke-linecap:round;stroke-linejoin:round;stroke-miterlimit:1.5;"><g><path d="M1309.41,2377.3c43.928,32.945 102.625,58.691 154.222,77.183c128.637,46.102 271.666,72.326 408.834,69.377c80.123,-1.722 163.998,-12.045 223.405,-66.52c146.776,-134.59 128.081,-361.553 249.725,-510.429c57.589,-70.483 144.069,-88.622 229.991,-117.156c56.595,-18.795 154.392,-33.503 177.741,-100.059c16.564,-47.215 -14.53,-92.53 -44.49,-128.104c-70.241,-83.402 -173.197,-146.036 -228.047,-240.81c-56.5,-97.624 -19.11,-215.184 -20.095,-319.013c-0.413,-43.5 -1.16,-105.62 -54.044,-126.428c-76.589,-30.136 -220.063,20.109 -279.202,33.155c-138.123,30.468 -289.038,80.017 -432.36,34.768c-140.205,-44.265 -254.078,-147.638 -381.817,-214.759c-43.946,-23.091 -140.961,-56.069 -183.985,-11.317c-46.033,47.884 -48.256,108.297 -54.943,169.556c-9.398,86.1 -3.34,192.748 -69.544,263.246c-77.322,82.337 -203.727,107.975 -301.899,160.552c-36.229,19.403 -88.711,50.068 -79.565,98.117c14.587,76.634 160.546,138.261 207.115,165.124c115.473,66.608 266.968,127.102 323.617,253.482c44.916,100.204 39.201,212.037 59.408,317.098c13.336,69.332 33.156,145.855 95.933,192.937Z" style="fill:#0d7507;"/><path d="M788.71,2414.1c28.716,24.389 68.475,47.766 103.74,66.23c87.916,46.031 187.57,84.594 285.272,107.415c57.07,13.33 117.46,22.991 163.812,6.062c114.523,-41.825 118.465,-159.53 216.211,-213.01c46.276,-25.319 109.11,-19.136 172.336,-18.292c41.646,0.556 112.263,10.474 133.907,-18.934c15.355,-20.861 -3.302,-49.211 -21.893,-72.45c-43.587,-54.483 -111.999,-104.295 -143.784,-161.782c-32.742,-59.216 2.752,-111.842 9.933,-164.348c3.009,-21.998 7.193,-53.44 -28.81,-73.298c-52.141,-28.761 -157.914,-28.861 -200.932,-32.766c-100.47,-9.12 -211.479,-10.89 -309.896,-59.094c-96.278,-47.155 -169.355,-119.436 -255.038,-175.901c-29.478,-19.426 -95.919,-53.239 -129.891,-38.307c-36.348,15.976 -42.514,46.031 -51.915,75.721c-13.214,41.73 -17.004,96.556 -69.403,120.356c-61.199,27.797 -152.974,18.319 -226.732,27.422c-27.219,3.359 -66.843,9.515 -63.99,35.353c4.55,41.209 103.598,98.135 134.653,119.926c77.006,54.034 180.074,111.37 210.74,185.106c24.313,58.463 11.763,113.815 18.149,170.348c4.214,37.308 12.492,79.389 53.531,114.243Z" style="fill:#5ec058;"/><g><ellipse cx="2046.57" cy="1792.25" rx="524.583" ry="509.465" style="fill:#ff4b2d;stroke:#b80505;stroke-width:24.14px;"/><ellipse cx="2046.57" cy="1792.25" rx="160.57" ry="162.631" style="fill:#ff917e;"/><path d="M2046.57,1453.59c194.619,0 352.624,150.724 352.624,336.373c-0,185.649 -158.005,336.373 -352.624,336.373c-194.618,-0 -352.623,-150.724 -352.623,-336.373c-0,-185.649 158.005,-336.373 352.623,-336.373Zm0,84.093c145.964,0 264.468,113.043 264.468,252.28c0,139.237 -118.504,252.28 -264.468,252.28c-145.963,-0 -264.467,-113.043 -264.467,-252.28c-0,-139.237 118.504,-252.28 264.467,-252.28Z" style="fill:#ff917e;"/><path d="M2027.46,1505.08c-0,0 22.547,5.074 30.591,2.392c6.253,-2.084 9.638,-8.854 7.553,-15.107c-2.084,-6.253 -8.853,-9.638 -15.107,-7.553c-8.044,2.681 -23.037,20.268 -23.037,20.268Z" style="fill:#ff9225;"/><path d="M2134.19,1488.35c0,0 -15.109,17.487 -16.54,25.845c-1.112,6.497 3.26,12.675 9.757,13.787c6.497,1.112 12.675,-3.26 13.787,-9.757c1.43,-8.358 -7.004,-29.875 -7.004,-29.875Z" style="fill:#ff9225;"/><path d="M2216.61,1535.81c0,-0 -20.767,-10.141 -29.213,-9.389c-6.565,0.585 -11.421,6.39 -10.836,12.955c0.584,6.566 6.389,11.422 12.955,10.837c8.446,-0.752 27.094,-14.403 27.094,-14.403Z" style="fill:#ff9225;"/><path d="M2261.54,1601.25c-0,0 4.499,-22.668 1.615,-30.642c-2.243,-6.198 -9.096,-9.41 -15.294,-7.168c-6.198,2.243 -9.41,9.096 -7.168,15.294c2.885,7.974 20.847,22.516 20.847,22.516Z" style="fill:#ff9225;"/><path d="M2287.13,1646.11c-0,0 23.066,-1.441 30.038,-6.267c5.42,-3.751 6.774,-11.197 3.023,-16.617c-3.752,-5.42 -11.198,-6.774 -16.618,-3.023c-6.972,4.826 -16.443,25.907 -16.443,25.907Z" style="fill:#ff9225;"/><path d="M2322.32,1682.45c-0,-0 7.285,21.932 13.732,27.44c5.011,4.282 12.556,3.689 16.838,-1.322c4.282,-5.012 3.689,-12.557 -1.323,-16.839c-6.447,-5.508 -29.247,-9.279 -29.247,-9.279Z" style="fill:#ff9225;"/><path d="M2355.11,1746.38c0,0 -19.343,12.647 -23.022,20.287c-2.859,5.939 -0.358,13.082 5.581,15.941c5.939,2.86 13.082,0.359 15.941,-5.58c3.679,-7.64 1.5,-30.648 1.5,-30.648Z" style="fill:#ff9225;"/><path d="M2366.07,1832.14c-0,0 -21.795,-7.687 -30.099,-5.969c-6.455,1.335 -10.611,7.66 -9.276,14.115c1.336,6.455 7.66,10.611 14.115,9.276c8.304,-1.718 25.26,-17.422 25.26,-17.422Z" style="fill:#ff9225;"/><path d="M2338.97,1923.46c-0,-0 -7.13,-21.984 -13.537,-27.537c-4.981,-4.317 -12.53,-3.778 -16.847,1.203c-4.318,4.981 -3.779,12.53 1.202,16.847c6.408,5.553 29.182,9.487 29.182,9.487Z" style="fill:#ff9225;"/><path d="M2285.17,1985.9c0,-0 13.136,-19.015 13.656,-27.478c0.405,-6.579 -4.608,-12.249 -11.187,-12.654c-6.579,-0.405 -12.249,4.608 -12.654,11.187c-0.52,8.464 10.185,28.945 10.185,28.945Z" style="fill:#ff9225;"/><path d="M2220.21,2030.91c-0,-0 23.084,-1.113 30.124,-5.839c5.472,-3.674 6.932,-11.1 3.258,-16.573c-3.674,-5.472 -11.1,-6.933 -16.572,-3.259c-7.04,4.727 -16.81,25.671 -16.81,25.671Z" style="fill:#ff9225;"/><path d="M2151.65,2048.56c0,0 14.903,17.664 22.934,20.386c6.242,2.117 13.029,-1.233 15.145,-7.476c2.117,-6.242 -1.233,-13.028 -7.476,-15.145c-8.03,-2.722 -30.603,2.235 -30.603,2.235Z" style="fill:#ff9225;"/><path d="M2100.8,2057.55c-0,-0 -4.982,22.567 -2.268,30.601c2.11,6.244 8.893,9.601 15.138,7.492c6.244,-2.11 9.601,-8.893 7.492,-15.138c-2.715,-8.033 -20.362,-22.955 -20.362,-22.955Z" style="fill:#ff9225;"/><path d="M2039.22,2069.59c-0,0 -20.955,9.748 -25.689,16.783c-3.679,5.469 -2.227,12.896 3.242,16.576c5.468,3.68 12.896,2.228 16.576,-3.241c4.734,-7.035 5.871,-30.118 5.871,-30.118Z" style="fill:#ff9225;"/><path d="M1976.88,2067.78c-0,0 -20.471,-10.727 -28.935,-10.215c-6.579,0.397 -11.598,6.062 -11.2,12.642c0.398,6.579 6.062,11.598 12.642,11.2c8.464,-0.512 27.493,-13.627 27.493,-13.627Z" style="fill:#ff9225;"/><path d="M1896.54,2057.55c-0,-0 -3.91,-22.778 -9.457,-29.191c-4.311,-4.986 -11.86,-5.533 -16.845,-1.221c-4.986,4.312 -5.533,11.86 -1.221,16.846c5.547,6.413 27.523,13.566 27.523,13.566Z" style="fill:#ff9225;"/><path d="M1825.71,2024.23c-0,0 15.721,-16.939 17.448,-25.241c1.342,-6.453 -2.808,-12.782 -9.261,-14.124c-6.454,-1.342 -12.783,2.807 -14.125,9.261c-1.726,8.302 5.938,30.104 5.938,30.104Z" style="fill:#ff9225;"/><path d="M1770.85,1964.94c0,0 23.006,2.203 30.65,-1.467c5.942,-2.853 8.45,-9.994 5.597,-15.936c-2.853,-5.942 -9.994,-8.45 -15.936,-5.597c-7.644,3.67 -20.311,23 -20.311,23Z" style="fill:#ff9225;"/><path d="M1742.6,1896.2c0,0 12.222,19.615 19.78,23.459c5.875,2.988 13.071,0.644 16.06,-5.232c2.988,-5.875 0.644,-13.071 -5.232,-16.059c-7.558,-3.844 -30.608,-2.168 -30.608,-2.168Z" style="fill:#ff9225;"/><path d="M1744.1,1825.18c0,0 -8.16,21.622 -6.624,29.961c1.194,6.483 7.427,10.776 13.909,9.582c6.483,-1.195 10.776,-7.427 9.582,-13.91c-1.537,-8.339 -16.867,-25.633 -16.867,-25.633Z" style="fill:#ff9225;"/><path d="M1752.74,1759.17c-0,0 -22.134,6.649 -27.826,12.934c-4.425,4.886 -4.051,12.444 0.835,16.869c4.886,4.425 12.445,4.051 16.869,-0.835c5.693,-6.285 10.122,-28.968 10.122,-28.968Z" style="fill:#ff9225;"/><path d="M1777.39,1712.71c0,-0 -18.724,-13.547 -27.174,-14.252c-6.569,-0.548 -12.347,4.34 -12.895,10.909c-0.548,6.568 4.34,12.346 10.909,12.894c8.45,0.705 29.16,-9.551 29.16,-9.551Z" style="fill:#ff9225;"/><path d="M1789.56,1669.75c0,-0 -0.609,-23.103 -5.18,-30.244c-3.554,-5.552 -10.947,-7.173 -16.498,-3.62c-5.552,3.554 -7.173,10.947 -3.619,16.498c4.571,7.142 25.297,17.366 25.297,17.366Z" style="fill:#ff9225;"/><path d="M1809.78,1611.85c0,0 17.984,-14.515 20.881,-22.484c2.252,-6.195 -0.949,-13.053 -7.144,-15.305c-6.195,-2.251 -13.053,0.95 -15.305,7.145c-2.897,7.969 1.568,30.644 1.568,30.644Z" style="fill:#ff9225;"/><path d="M1854.97,1553.94c-0,0 22.453,5.473 30.544,2.935c6.289,-1.973 9.793,-8.681 7.82,-14.971c-1.973,-6.289 -8.681,-9.793 -14.971,-7.82c-8.09,2.538 -23.393,19.856 -23.393,19.856Z" style="fill:#ff9225;"/><path d="M1924.62,1505.31c-0,0 9.288,21.162 16.218,26.048c5.388,3.798 12.845,2.508 16.643,-2.879c3.799,-5.387 2.508,-12.845 -2.879,-16.643c-6.93,-4.886 -29.982,-6.526 -29.982,-6.526Z" style="fill:#ff9225;"/><path d="M1990.8,1479.24c0,0 -11.171,20.232 -10.844,28.705c0.254,6.587 5.808,11.728 12.395,11.474c6.587,-0.255 11.728,-5.809 11.473,-12.395c-0.327,-8.473 -13.024,-27.784 -13.024,-27.784Z" style="fill:#ff9225;"/></g><g><path d="M2899.55,785.793c224.981,178.026 308.049,448.415 185.384,603.434c-122.665,155.018 -404.909,136.339 -629.89,-41.687c-224.981,-178.025 -308.049,-448.415 -185.384,-603.433c122.665,-155.019 404.909,-136.34 629.89,41.686Z" style="fill:#ff4b2d;stroke:#b80505;stroke-width:24.14px;"/><path d="M2748.24,977.007c68.865,54.491 92.984,138.907 53.827,188.392c-39.157,49.485 -126.857,45.42 -195.721,-9.072c-68.865,-54.492 -92.983,-138.908 -53.827,-188.393c39.157,-49.485 126.857,-45.419 195.721,9.073Z" style="fill:#ff917e;"/><path d="M2825.04,879.961c151.232,119.668 208.26,299.92 127.271,402.27c-80.989,102.351 -269.523,88.29 -420.755,-31.378c-151.232,-119.669 -208.26,-299.92 -127.271,-402.271c80.989,-102.35 269.523,-88.29 420.755,31.379Zm-36.685,46.361c113.424,89.752 156.195,224.94 95.453,301.703c-60.742,76.763 -202.142,66.218 -315.566,-23.534c-113.424,-89.751 -156.195,-224.94 -95.454,-301.703c60.742,-76.762 202.143,-66.217 315.567,23.534Z" style="fill:#ff917e;"/><path d="M2787.72,896.595c-0,0 16.921,17.415 25.033,21.206c4.496,2.102 9.047,-0.032 10.155,-4.761c1.108,-4.729 -1.643,-10.275 -6.139,-12.376c-8.113,-3.791 -29.049,-4.069 -29.049,-4.069Z" style="fill:#ff9225;"/><path d="M2877.96,953.001c-0,-0 -17.543,-1.082 -21.517,2.032c-5.14,4.027 -5.607,11.038 -1.044,15.646c4.564,4.608 12.441,5.08 17.581,1.052c3.974,-3.114 4.98,-18.73 4.98,-18.73Z" style="fill:#ff9225;"/><path d="M2921.3,1029.85c-0,-0 -13.65,-19.703 -21.371,-25.058c-3.83,-2.656 -8.896,-1.581 -11.306,2.398c-2.41,3.979 -1.257,9.366 2.573,12.022c7.721,5.354 30.104,10.638 30.104,10.638Z" style="fill:#ff9225;"/><path d="M2927.67,1093.55c-0,0 12.985,-7.732 14.05,-13.046c1.277,-6.371 -2.39,-13.634 -8.185,-16.209c-5.795,-2.575 -11.537,0.507 -12.814,6.878c-1.065,5.314 6.949,22.377 6.949,22.377Z" style="fill:#ff9225;"/><path d="M2927.98,1134.02c0,-0 19.025,13.49 26.751,15.161c5.476,1.183 9.474,-2.154 8.923,-7.449c-0.551,-5.295 -5.443,-10.555 -10.919,-11.738c-7.726,-1.671 -24.755,4.026 -24.755,4.026Z" style="fill:#ff9225;"/><path d="M2939.47,1175.68c-0,-0 -3.92,16.537 -1.318,23.524c2.036,5.468 8.166,9.802 13.679,9.672c5.514,-0.13 8.336,-4.676 6.3,-10.144c-2.601,-6.986 -18.661,-23.052 -18.661,-23.052Z" style="fill:#ff9225;"/><path d="M2937.05,1231.09c-0,-0 -18.853,-5.456 -24.317,-3.735c-6.15,1.938 -8.409,7.755 -5.041,12.983c3.368,5.229 11.095,7.9 17.244,5.963c5.465,-1.721 12.114,-15.211 12.114,-15.211Z" style="fill:#ff9225;"/><path d="M2908.17,1285.11c0,0 -15.441,-18.713 -23.44,-23.331c-4.132,-2.387 -8.931,-0.769 -10.71,3.611c-1.778,4.38 0.134,9.873 4.266,12.26c7.999,4.618 29.884,7.46 29.884,7.46Z" style="fill:#ff9225;"/><path d="M2847.27,1318.79c-0,0 4.075,-16.436 1.529,-23.409c-2.007,-5.496 -8.124,-9.883 -13.652,-9.792c-5.527,0.092 -8.386,4.628 -6.379,10.124c2.546,6.973 18.502,23.077 18.502,23.077Z" style="fill:#ff9225;"/><path d="M2778.22,1320.14c-0,0 16.859,-0.663 20.251,-4.262c4.48,-4.752 4.11,-12.077 -0.825,-16.345c-4.936,-4.269 -12.581,-3.876 -17.061,0.877c-3.393,3.599 -2.365,19.73 -2.365,19.73Z" style="fill:#ff9225;"/><path d="M2708.11,1305.01c-0,-0 18.965,13.704 26.73,15.48c5.428,1.242 9.455,-2.033 8.987,-7.31c-0.467,-5.276 -5.254,-10.568 -10.681,-11.809c-7.765,-1.777 -25.036,3.639 -25.036,3.639Z" style="fill:#ff9225;"/><path d="M2647.13,1272.59c-0,-0 4.963,20.288 10.481,27.321c3.07,3.912 9.109,5.351 13.477,3.21c4.368,-2.14 5.421,-7.054 2.351,-10.966c-5.518,-7.033 -26.309,-19.565 -26.309,-19.565Z" style="fill:#ff9225;"/><path d="M2603.7,1246.27c-0,0 -13.252,7.348 -14.448,12.575c-1.451,6.341 2.058,13.663 7.831,16.34c5.773,2.676 11.638,-0.299 13.089,-6.64c1.196,-5.228 -6.472,-22.275 -6.472,-22.275Z" style="fill:#ff9225;"/><path d="M2550.59,1215.04c-0,-0 -19.263,-7.693 -25.465,-6.804c-6.249,0.896 -9.175,6.001 -6.531,11.393c2.644,5.391 9.864,9.041 16.113,8.144c6.202,-0.889 15.883,-12.733 15.883,-12.733Z" style="fill:#ff9225;"/><path d="M2502.93,1175.71c0,-0 -13.157,-19.899 -20.785,-25.42c-3.764,-2.724 -8.899,-1.793 -11.46,2.079c-2.562,3.872 -1.585,9.228 2.179,11.952c7.628,5.521 30.066,11.389 30.066,11.389Z" style="fill:#ff9225;"/><path d="M2444.97,1120.67c-0,-0 7.063,-14.209 5.621,-20.833c-1.305,-5.993 -7.037,-11.418 -12.792,-12.107c-5.756,-0.688 -9.369,3.619 -8.064,9.613c1.442,6.624 15.235,23.327 15.235,23.327Z" style="fill:#ff9225;"/><path d="M2404.47,1058.75c0,0 17.745,1.647 21.91,-1.303c5.327,-3.772 6.055,-10.657 1.626,-15.365c-4.43,-4.708 -12.35,-5.468 -17.676,-1.696c-4.165,2.95 -5.86,18.364 -5.86,18.364Z" style="fill:#ff9225;"/><path d="M2387.7,992.335c0,0 18.101,15.781 26.15,18.638c4.928,1.749 9.233,-0.915 9.608,-5.945c0.376,-5.03 -3.32,-10.534 -8.248,-12.283c-8.049,-2.857 -27.51,-0.41 -27.51,-0.41Z" style="fill:#ff9225;"/><path d="M2395.74,937.064c-0,0 1.547,19.307 6.003,26.493c2.784,4.489 9.01,6.995 13.895,5.593c4.885,-1.402 6.591,-6.184 3.807,-10.673c-4.456,-7.186 -23.705,-21.413 -23.705,-21.413Z" style="fill:#ff9225;"/><path d="M2427.89,898.832c0,0 -14.842,4.791 -16.887,9.428c-2.634,5.973 -0.26,13.525 5.298,16.852c5.558,3.328 12.21,1.18 14.844,-4.794c2.045,-4.637 -3.255,-21.486 -3.255,-21.486Z" style="fill:#ff9225;"/><path d="M2463.4,867.755c-0,0 -19.435,-9.941 -26.316,-9.975c-6.093,-0.029 -9.525,4.366 -7.659,9.81c1.866,5.443 8.329,9.887 14.422,9.916c6.88,0.034 19.553,-9.751 19.553,-9.751Z" style="fill:#ff9225;"/><path d="M2502.82,857.297c-0,0 -10.403,-20.554 -17.417,-26.813c-3.476,-3.101 -8.969,-2.952 -12.261,0.332c-3.291,3.285 -3.142,8.469 0.333,11.57c7.015,6.259 29.345,14.911 29.345,14.911Z" style="fill:#ff9225;"/><path d="M2531.02,841.098c0,0 9.694,-11.741 9.295,-17.902c-0.41,-6.326 -5.504,-12.643 -11.368,-14.097c-5.864,-1.454 -10.292,2.501 -9.882,8.828c0.399,6.161 11.955,23.171 11.955,23.171Z" style="fill:#ff9225;"/><path d="M2571.99,821.604c0,-0 18.456,3.9 23.39,1.65c5.912,-2.697 7.601,-8.986 3.77,-14.037c-3.832,-5.051 -11.742,-6.962 -17.654,-4.266c-4.934,2.25 -9.506,16.653 -9.506,16.653Z" style="fill:#ff9225;"/><path d="M2632.36,817.468c0,-0 16.722,17.626 24.828,21.546c4.438,2.146 9.024,0.088 10.235,-4.592c1.21,-4.681 -1.411,-10.223 -5.849,-12.37c-8.106,-3.919 -29.214,-4.584 -29.214,-4.584Z" style="fill:#ff9225;"/><path d="M2707.71,833.485c0,0 -1.828,17.777 1.506,24.903c2.382,5.092 8.621,8.711 13.922,8.077c5.302,-0.635 7.672,-5.284 5.29,-10.377c-3.334,-7.126 -20.718,-22.603 -20.718,-22.603Z" style="fill:#ff9225;"/><path d="M2770.51,859.802c-0,0 -16.12,2.323 -18.969,6.354c-3.768,5.335 -2.583,12.841 2.646,16.75c5.23,3.91 12.535,2.754 16.304,-2.581c2.848,-4.032 0.019,-20.523 0.019,-20.523Z" style="fill:#ff9225;"/></g><path d="M3071.24,2533.92c39.506,12.005 86.932,14.451 127.407,13.522c100.909,-2.317 205.762,-23.515 298.075,-64.745c53.922,-24.084 107.87,-55.632 132.243,-113.059c60.219,-141.885 -19.068,-305.389 19.887,-450.747c18.442,-68.817 71.866,-106.922 121.861,-152.599c32.931,-30.086 95.05,-68.859 91.384,-125.011c-2.6,-39.834 -37.017,-64.692 -67.806,-82.627c-72.183,-42.048 -160.497,-59.337 -225.562,-114.224c-67.021,-56.537 -76.113,-154.623 -107.243,-231.576c-13.043,-32.239 -31.776,-78.234 -73.804,-78.662c-60.869,-0.619 -143.589,77.587 -179.935,104.121c-84.888,61.972 -172.868,141.777 -283.501,148.907c-108.228,6.975 -215.911,-37.511 -322.375,-51.084c-36.628,-4.67 -112.205,-1.591 -128.301,43.942c-17.223,48.719 -1.009,94.289 12.421,141.759c18.877,66.719 54.281,144.324 29.991,215.604c-28.368,83.251 -106.713,138.295 -157.977,205.343c-18.917,24.742 -45.572,62.489 -25.262,95.626c32.392,52.852 149.622,57.155 189.138,63.883c97.982,16.683 218.641,18.567 294.2,96.452c59.91,61.752 88.837,146.565 133.387,218.962c29.4,47.777 65.315,99.058 121.772,116.213Z" style="fill:#5ec058;"/><path d="M1902.42,1022.68c17.678,-53.37 -11.256,-110.966 -64.626,-128.643c-72.147,-23.898 -170.314,-56.414 -242.461,-80.311c-53.369,-17.678 -110.965,11.256 -128.643,64.626c-1.541,4.653 -3.088,9.325 -4.63,13.978c-17.677,53.369 11.257,110.965 64.627,128.643c72.146,23.897 170.313,56.413 242.46,80.31c53.37,17.678 110.965,-11.256 128.643,-64.626c1.541,-4.653 3.089,-9.324 4.63,-13.977Z" style="fill:#ff6300;"/><path d="M1320.49,1738.59c-11.38,-55.057 -65.238,-90.466 -120.295,-79.086c-74.429,15.383 -175.7,36.315 -250.129,51.698c-55.057,11.38 -90.465,65.238 -79.086,120.295c0.992,4.8 1.988,9.62 2.981,14.42c11.379,55.058 65.237,90.466 120.295,79.086c74.428,-15.383 175.7,-36.315 250.128,-51.698c55.058,-11.379 90.466,-65.238 79.086,-120.295c-0.992,-4.8 -1.988,-9.62 -2.98,-14.42Z" style="fill:#ff6300;"/><path d="M3347.21,1759.62c26.637,-49.511 8.094,-111.241 -41.417,-137.878c-66.93,-36.008 -157.999,-85.003 -224.929,-121.011c-49.511,-26.636 -111.241,-8.093 -137.878,41.418c-2.322,4.316 -4.654,8.65 -6.976,12.967c-26.637,49.511 -8.093,111.24 41.418,137.877c66.93,36.008 157.999,85.003 224.929,121.011c49.511,26.637 111.241,8.093 137.877,-41.417c2.323,-4.317 4.654,-8.651 6.976,-12.967Z" style="fill:#ff6300;"/></g><path d="M3055.66,3044.66l-1771.83,0l-0,240.073c-0,189.381 153.523,342.905 342.905,342.905l1086.02,-0c189.381,-0 342.905,-153.524 342.905,-342.905l-0,-240.073Z" style="fill:#d6d6d6;"/><path d="M3889.66,2268.27c12.456,-44.054 3.545,-91.399 -24.074,-127.91c-27.619,-36.511 -70.753,-57.967 -116.534,-57.967l-3158.62,-0c-45.78,-0 -88.915,21.456 -116.534,57.967c-27.619,36.511 -36.529,83.856 -24.073,127.91c30.683,108.52 71.469,252.769 113.111,400.046c111.705,395.07 472.283,667.832 882.842,667.832l1447.93,0c410.558,0 771.136,-272.762 882.841,-667.832c41.642,-147.277 82.428,-291.526 113.112,-400.046Z" style="fill:#ebebeb;"/><path d="M3626.09,2082.39c45.781,-0 88.915,21.456 116.534,57.967c27.619,36.511 36.53,83.856 24.074,127.91c-30.684,108.52 -71.47,252.769 -113.112,400.046c-111.704,395.07 -472.282,667.832 -882.841,667.832l122.969,0c410.558,0 771.136,-272.762 882.841,-667.832c41.642,-147.277 82.428,-291.526 113.112,-400.046c12.456,-44.054 3.545,-91.399 -24.074,-127.91c-27.619,-36.511 -70.753,-57.967 -116.534,-57.967l-122.969,-0Z" style="fill:#d6d6d6;"/></svg>