<?xml version="1.0" encoding="UTF-8" standalone="no"?><!DOCTYPE svg PUBLIC "-//W3C//DTD SVG 1.1//EN" "http://www.w3.org/Graphics/SVG/1.1/DTD/svg11.dtd"><svg width="100%" height="100%" viewBox="0 0 4267 4267" version="1.1" xmlns="http://www.w3.org/2000/svg" xmlns:xlink="http://www.w3.org/1999/xlink" xml:space="preserve" xmlns:serif="http://www.serif.com/" style="fill-rule:evenodd;clip-rule:evenodd;stroke-linecap:round;stroke-linejoin:round;stroke-miterlimit:1.5;"><path d="M1295.64,675.866c-241.182,260.38 -267.291,538.616 -0,835.866" style="fill:none;stroke:#000;stroke-width:104.17px;"/><path d="M2133.28,461.602c-241.183,260.379 -267.291,538.615 -0,835.866" style="fill:none;stroke:#000;stroke-width:104.17px;"/><path d="M2970.92,675.866c-241.182,260.38 -267.29,538.616 0,835.866" style="fill:none;stroke:#000;stroke-width:104.17px;"/><path d="M1295.86,2347.6c241.115,-260.442 267.151,-538.685 -0.217,-835.866" style="fill:none;stroke:#000;stroke-width:104.17px;"/><path d="M2133.5,2133.33c241.114,-260.442 267.15,-538.685 -0.217,-835.865" style="fill:none;stroke:#000;stroke-width:104.17px;"/><path d="M2971.13,2347.6c241.115,-260.442 267.151,-538.685 -0.217,-835.866" style="fill:none;stroke:#000;stroke-width:104.17px;"/><path d="M2133.33,3826.2l1199.42,-0c275.184,0.856 474.794,-43.883 475.858,-208.411" style="fill:none;stroke:#000;stroke-width:104.17px;"/><path d="M2133.33,3826.2l-1199.42,-0c-275.185,0.856 -474.795,-43.883 -475.858,-208.411" style="fill:none;stroke:#000;stroke-width:104.17px;"/><path d="M3808.61,3617.78l-3350.55,-0" style="fill:none;stroke:#000;stroke-width:104.17px;"/><path d="M3387.13,3617.78c0,-284.601 -113.057,-557.545 -314.3,-758.787c-201.243,-201.243 -474.187,-314.301 -758.787,-314.301l-361.423,0c-284.6,0 -557.544,113.058 -758.787,314.301c-201.243,201.242 -314.3,474.186 -314.3,758.787l-0,0.001l2507.6,-0l0,-0.001Z" style="fill:none;stroke:#000;stroke-width:104.17px;"/><circle cx="2133.33" cy="2446.15" r="98.549" style="fill:none;stroke:#000;stroke-width:104.17px;"/><path d="M3039.52,3160.65c-75.526,-154.067 -202.73,-276.826 -417.145,-346.752" style="fill:none;stroke:#000;stroke-width:104.17px;"/></svg>